<?xml version="1.0" standalone="no"?>
<!DOCTYPE svg PUBLIC "-//W3C//DTD SVG 1.1//EN" "http://www.w3.org/Graphics/SVG/1.1/DTD/svg11.dtd" >
<svg>
<metadata>
Created by FontForge 20090622 at Fri Jul  3 12:21:41 2015
 By deploy user
Copyright &#194;&#169; 1993, 1994, 2001 Adobe Systems Incorporated.  All Rights Reserved.
</metadata>
<defs>
<font id="ITCAvantGardeStd-BkObl" horiz-adv-x="576" >
  <font-face 
    font-family="ITC Avant Garde Std Bk"
    font-weight="300"
    font-style="italic"
    font-stretch="normal"
    units-per-em="1000"
    panose-1="2 11 5 2 2 2 2 2 2 4"
    ascent="740"
    descent="-260"
    x-height="538"
    cap-height="740"
    bbox="-131 -290 1227 968"
    underline-thickness="50"
    underline-position="-50"
    slope="-10.5"
    unicode-range="U+0020-U+FB02"
  />
<missing-glyph horiz-adv-x="629" 
d="M129 0v700h500v-700h-500zM379 395l170 255h-340zM409 350l170 -255v510zM209 50h340l-170 255zM179 605v-510l170 255z" />
    <glyph glyph-name="fi" unicode="fi" horiz-adv-x="462" 
d="M405 479h-158l-89 -479h-73l89 479h-79l11 59h79l8 44q32 171 221 171l-11 -59q-19 -1 -27.5 -2t-30.5 -7.5t-34.5 -17.5t-26 -35t-19.5 -57l-7 -37h232l-100 -538h-74zM508 637h-74l19 103h74z" />
    <glyph glyph-name="fl" unicode="fl" horiz-adv-x="462" 
d="M405 479h-158l-89 -479h-73l89 479h-79l11 59h79l8 44q32 171 221 171l-11 -59q-19 -1 -27.5 -2t-30.5 -7.5t-34.5 -17.5t-26 -35t-19.5 -57l-7 -37h158l37 202h74l-137 -740h-74z" />
    <glyph glyph-name=".notdef" horiz-adv-x="629" 
d="M129 0v700h500v-700h-500zM379 395l170 255h-340zM409 350l170 -255v510zM209 50h340l-170 255zM179 605v-510l170 255z" />
    <glyph glyph-name=".null" horiz-adv-x="0" 
 />
    <glyph glyph-name="nonmarkingreturn" horiz-adv-x="333" 
 />
    <glyph glyph-name="space" unicode=" " horiz-adv-x="288" 
 />
    <glyph glyph-name="exclam" unicode="!" horiz-adv-x="284" 
d="M317 740l-101 -548h-76l101 548h76zM200 110l-20 -110h-76l20 110h76z" />
    <glyph glyph-name="quotedbl" unicode="&#x22;" horiz-adv-x="376" 
d="M231 444h-61l55 296h61zM370 444h-61l55 296h61z" />
    <glyph glyph-name="numbersign" unicode="#" 
d="M433 258l-72 -218h-53l71 218h-121l-71 -218h-55l72 218h-134l14 52h136l38 116h-134l15 52h137l65 200h54l-65 -200h121l65 200h54l-65 -200h138l-15 -52h-141l-38 -116h138l-14 -52h-140zM395 310l39 116h-121l-39 -116h121z" />
    <glyph glyph-name="dollar" unicode="$" 
d="M474 810l-16 -87q71 -11 101.5 -59t20.5 -112h-72q5 54 -24.5 82.5t-68.5 28.5q-45 0 -84.5 -32t-48.5 -83q-6 -30 0.5 -51.5t29 -36.5t41 -23t57.5 -21q152 -56 127 -189q-12 -69 -70 -125t-137 -68l-18 -97h-65l18 97q-76 8 -114 62.5t-27 129.5h77q-8 -63 25.5 -97
t83.5 -34q53 0 96 37t53 89q5 28 -1.5 51t-17 36.5t-35 26.5t-40.5 19t-47 16q-138 43 -115 172q14 73 67 121t123 60l16 87h65z" />
    <glyph glyph-name="percent" unicode="%" horiz-adv-x="765" 
d="M135 585l1 1q13 71 70.5 119.5t128.5 48.5q72 0 111.5 -48.5t25.5 -120.5q-13 -72 -70.5 -120.5t-129.5 -48.5q-71 0 -110.5 48.5t-26.5 120.5zM190 585v-1q-9 -49 17 -81.5t75 -32.5q50 0 87.5 32.5t46.5 82.5q10 50 -16 82.5t-75 32.5t-87 -32.5t-48 -82.5zM430 155v1
q14 71 71 119.5t129 48.5q71 0 110.5 -48.5t26.5 -120.5t-71 -120.5t-129 -48.5q-72 0 -111.5 48.5t-25.5 120.5zM485 155v-1q-10 -49 16 -81.5t76 -32.5q49 0 87 32.5t48 82.5q9 50 -17 83t-75 33q-50 0 -88 -33t-47 -83zM752 740l-545 -740h-59l544 740h60z" />
    <glyph glyph-name="ampersand" unicode="&#x26;" horiz-adv-x="733" 
d="M676 456h79l-178 -249l135 -169l-61 -50l-124 157q-56 -81 -113 -120t-141 -39q-98 0 -149 62.5t-35 147.5q26 139 219 222q-24 32 -36.5 52.5t-21 51t-3.5 63.5q13 69 72 118.5t132 49.5t114 -49.5t28 -118.5q-5 -29 -19 -53.5t-29.5 -41t-41.5 -33t-42.5 -25
t-46.5 -21.5l123 -154zM440 689h-1q-44 0 -77.5 -30.5t-40.5 -68.5q1 -12 -1.5 -18.5t1.5 -17.5t4.5 -16.5t6 -15.5l8 -14.5t9.5 -14t10 -13t10 -12.5t10 -12q73 33 104.5 58.5t40.5 71.5q8 42 -15.5 72.5t-68.5 30.5zM485 194l-138 177q-86 -37 -126.5 -79t-50.5 -91
q-10 -59 23.5 -101t97.5 -42q61 0 103.5 32.5t90.5 103.5z" />
    <glyph glyph-name="quotesingle" unicode="'" horiz-adv-x="229" 
d="M227 444h-61l55 296h61z" />
    <glyph glyph-name="parenleft" unicode="(" horiz-adv-x="441" 
d="M545 753l-16 -84q-109 -56 -198 -171.5t-115 -255.5q-26 -139 20 -254.5t135 -172.5l-16 -86q-137 78 -193 216t-27 298q30 158 140.5 300t269.5 210z" />
    <glyph glyph-name="parenright" unicode=")" horiz-adv-x="441" 
d="M-14 -271l15 84q109 57 198 172t115 256q25 138 -20.5 254t-133.5 173l16 85q136 -78 192 -216t26 -297q-29 -158 -139 -300.5t-269 -210.5z" />
    <glyph glyph-name="asterisk" unicode="*" horiz-adv-x="605" 
d="M467 740l-35 -133l125 76l17 -48l-129 -56l109 -58l-36 -48l-97 76l-14 -133h-55l36 134l-123 -77l-20 49l130 57l-109 55l37 49l95 -76l14 133h55z" />
    <glyph glyph-name="plus" unicode="+" horiz-adv-x="600" 
d="M429 503l-40 -216h215l-13 -72h-215l-40 -215h-72l40 215h-215l13 72h215l40 216h72z" />
    <glyph glyph-name="comma" unicode="," horiz-adv-x="289" 
d="M206 111l-110 -186h-67l98 186h79z" />
    <glyph glyph-name="hyphen" unicode="-" horiz-adv-x="271" 
d="M59 317h271l-14 -73h-271z" />
    <glyph glyph-name="period" unicode="." horiz-adv-x="289" 
d="M204 110l-20 -110h-78l20 110h78z" />
    <glyph glyph-name="slash" unicode="/" horiz-adv-x="543" 
d="M50 -100l478 840h83l-478 -840h-83z" />
    <glyph glyph-name="zero" unicode="0" 
d="M81 237l48 260q11 61 39.5 108.5t61.5 74.5t72.5 44.5t69.5 23t55 5.5q98 0 162 -66t42 -184l-49 -266q-13 -69 -49 -120.5t-81.5 -78t-87 -39t-76.5 -12.5q-30 0 -61 8t-62.5 25.5t-52.5 46.5t-32 71t1 99zM213 501l-49 -266q-15 -77 24 -126t111 -49q64 0 125 47
t76 128l50 270q7 41 -1 78.5t-43 67t-94 29.5q-73 0 -128.5 -49.5t-70.5 -129.5z" />
    <glyph glyph-name="one" unicode="1" 
d="M258 0l124 669h-149l13 71h232l-137 -740h-83z" />
    <glyph glyph-name="two" unicode="2" 
d="M55 0l12 67l289 238q2 2 23 19t25 20t22.5 18.5t23 20.5t19.5 19.5t20.5 22.5t16 21.5t15.5 24.5t10.5 24.5t8.5 26.5q13 71 -22 114.5t-101 43.5t-116 -48t-68 -132h-79q24 113 97 178q76 75 188 75q101 0 152 -65t31 -162q-12 -57 -47 -104t-105 -108l-289 -243h359
l-13 -71h-472z" />
    <glyph glyph-name="three" unicode="3" 
d="M268 565h-81q21 93 90.5 140.5t144.5 47.5q81 0 127 -50.5t31 -131.5q-19 -103 -131 -156q43 -16 70.5 -43.5t35 -55t10 -55.5t-3.5 -44q-19 -101 -99.5 -165.5t-185.5 -64.5q-57 0 -105.5 23.5t-73.5 66.5q-33 60 -20 140h83q-10 -71 29 -114t103 -43q71 0 122.5 45.5
t64.5 113.5q11 63 -27.5 110.5t-117.5 47.5h-49l12 64h37q71 0 112.5 39t49.5 82q10 51 -14.5 84.5t-74.5 33.5q-54 0 -90.5 -34t-48.5 -81z" />
    <glyph glyph-name="four" unicode="4" 
d="M374 0l26 139h-366l11 63l461 538h85l-99 -534h78l-12 -67h-78l-26 -139h-80zM132 206h284l81 434z" />
    <glyph glyph-name="five" unicode="5" 
d="M270 740h357l-13 -71h-293l-83 -220q77 46 149 46q109 0 163 -76t36 -174q-19 -104 -107.5 -181.5t-200.5 -77.5q-94 0 -158 60.5t-58 164.5h83q-2 -69 41.5 -110t104.5 -41q72 0 135 53.5t77 128.5q14 76 -28.5 130t-116.5 54q-88 0 -160 -79l-65 17z" />
    <glyph glyph-name="six" unicode="6" 
d="M441 740h94l-188 -215l-44 -52q43 26 98 26q96 0 154.5 -69t37.5 -181q-20 -110 -108.5 -186t-197.5 -76q-130 0 -184 88q-48 69 -29 168q17 93 100 190zM155 239v-1q-14 -75 25.5 -126.5t116.5 -51.5t137.5 53t74.5 129q16 84 -27.5 134t-112.5 50q-67 0 -132 -48.5
t-82 -138.5z" />
    <glyph glyph-name="seven" unicode="7" 
d="M217 740h422l-12 -66l-432 -674h-89l434 669h-336z" />
    <glyph glyph-name="eight" unicode="8" 
d="M190 569l1 1q13 73 80.5 128t156.5 55t135.5 -54t31.5 -130q-9 -52 -44.5 -93t-79.5 -61q57 -22 82.5 -75.5t14.5 -121.5q-20 -98 -100.5 -164.5t-181.5 -66.5q-102 0 -158.5 66t-39.5 165q14 68 59 121t111 76q-37 19 -57 60.5t-11 93.5zM270 563v-1q-9 -50 20 -85
t80 -35q50 0 92 35t51 86q10 52 -19 87t-79 35q-51 0 -93 -35t-52 -87zM170 218v-1q-12 -64 25 -110.5t104 -46.5q66 0 120 46.5t66 111.5t-24 112t-103 47t-121.5 -47t-66.5 -112z" />
    <glyph glyph-name="nine" unicode="9" 
d="M272 0h-94l188 215l45 52q-45 -26 -98 -26q-96 0 -155 69t-38 181q20 109 109 185.5t199 76.5q129 0 183 -88q47 -70 29 -168q-16 -90 -100 -190zM559 501v1q14 75 -26 126.5t-117 51.5q-76 0 -137 -53t-75 -129q-15 -83 28.5 -133.5t111.5 -50.5t133 48.5t82 138.5z" />
    <glyph glyph-name="colon" unicode=":" horiz-adv-x="289" 
d="M284 538l-21 -110h-78l21 110h78zM204 110l-20 -110h-78l20 110h78z" />
    <glyph glyph-name="semicolon" unicode=";" horiz-adv-x="289" 
d="M283 538l-21 -110h-77l21 110h77zM206 111l-113 -186h-64l98 186h79z" />
    <glyph glyph-name="less" unicode="&#x3c;" horiz-adv-x="600" 
d="M102 288l545 228l-15 -79l-459 -186l390 -185l-14 -79l-460 228z" />
    <glyph glyph-name="equal" unicode="=" horiz-adv-x="600" 
d="M122 395h502l-13 -71h-502zM82 178h502l-13 -71h-502z" />
    <glyph glyph-name="greater" unicode="&#x3e;" horiz-adv-x="600" 
d="M61 66l460 186l-391 185l15 79l459 -228l-13 -73l-544 -228z" />
    <glyph glyph-name="question" unicode="?" horiz-adv-x="555" 
d="M337 189h-78q12 56 39.5 101.5t93.5 98.5q70 60 89 84q22 30 30 64q11 58 -21 98.5t-94 40.5q-53 0 -100 -32t-68 -92q-3 -9 -7 -27h-81q4 20 6 24q27 98 105.5 151t162.5 53q93 0 145.5 -61t36.5 -149q-6 -30 -20 -57t-40.5 -54t-42 -40.5l-50.5 -42.5
q-40 -32 -64 -64.5t-30.5 -50.5t-11.5 -45zM321 110l-20 -110h-77l20 110h77z" />
    <glyph glyph-name="at" unicode="@" horiz-adv-x="780" 
d="M713 162l18 -30q-64 -74 -157 -110t-168 -36q-114 0 -193 55t-108 140.5t-11 183.5q29 160 161 274.5t298 114.5q90 0 161.5 -37.5t108 -111t18.5 -168.5q-23 -123 -111.5 -200t-161.5 -77q-30 0 -53.5 16.5t-19.5 57.5q-61 -71 -138 -71q-46 0 -78.5 36.5t-18.5 109.5
q19 98 96 180t160 82q77 0 91 -75l29 60h54l-124 -254q0 -2 -9 -21t-11 -29q-9 -43 38 -43q53 0 121 64t86 163q12 64 -4 116t-52 85t-84.5 51t-103.5 18q-141 0 -257 -98t-144 -244q-24 -134 49 -232t220 -98q77 0 159 32.5t139 95.5zM315 310v-1q-9 -52 10.5 -74.5
t50.5 -22.5q90 0 147 111q1 3 12.5 22.5t18 32t14 30t9.5 28.5q7 41 -13.5 63.5t-51.5 22.5q-57 0 -119 -64t-78 -148z" />
    <glyph glyph-name="A" unicode="A" horiz-adv-x="711" 
d="M221 208l-124 -208h-89l446 740h80l169 -740h-90l-47 208h-345zM553 276l-79 371l-216 -371h295z" />
    <glyph glyph-name="B" unicode="B" horiz-adv-x="575" 
d="M74 0l137 740h195q96 0 140 -35q72 -46 51 -154q-19 -106 -128 -157q44 -14 70 -40.5t33 -57.5t7 -51t-3 -39q-24 -121 -133 -173q-60 -33 -165 -33h-204zM280 667l-46 -247h112q56 0 90 15q66 34 80 110q7 38 -5 66t-36 39q-27 16 -88 17h-107zM221 350l-51 -277h134
q55 0 92 14q83 33 101 123q16 90 -56 125q-32 15 -101 15h-119z" />
    <glyph glyph-name="C" unicode="C" horiz-adv-x="801" 
d="M714 199h89q-54 -90 -158 -151t-221 -61q-164 0 -254.5 111t-60.5 272q30 160 160.5 271.5t295.5 111.5q65 0 120 -20t90.5 -53t58 -69t32.5 -74h-89q-8 20 -23.5 41.5t-41.5 46t-68.5 40t-92.5 15.5q-129 0 -232.5 -89.5t-127.5 -219.5q-25 -131 45.5 -221t199.5 -90
q54 0 104 16.5t86 43.5t55 44.5t33 34.5z" />
    <glyph glyph-name="D" unicode="D" horiz-adv-x="715" 
d="M74 0l137 740h221q198 0 271 -111q70 -98 41 -258q-32 -172 -147 -271.5t-298 -99.5h-225zM280 667l-110 -594h147q140 0 229 79t114 216t-32 216q-61 83 -201 83h-147z" />
    <glyph glyph-name="E" unicode="E" horiz-adv-x="541" 
d="M74 0l137 740h410l-13 -73h-328l-48 -257h326l-14 -73h-326l-48 -264h328l-14 -73h-410z" />
    <glyph glyph-name="F" unicode="F" horiz-adv-x="487" 
d="M74 0l137 740h376l-13 -73h-294l-49 -260h292l-13 -74h-292l-62 -333h-82z" />
    <glyph glyph-name="G" unicode="G" horiz-adv-x="853" 
d="M876 548h-94q-27 49 -69 80q-65 52 -162 52q-125 0 -230 -87t-130 -222q-26 -137 47.5 -224.5t198.5 -87.5q113 0 210 67q93 63 129 155h-368l13 68h464q-16 -78 -60 -143q-66 -102 -177 -161t-225 -59q-107 0 -186 50t-114 138.5t-15 196.5q20 109 88.5 197t166.5 136.5
t204 48.5q112 0 197 -57t112 -148z" />
    <glyph glyph-name="H" unicode="H" horiz-adv-x="670" 
d="M156 0h-82l137 740h82l-61 -329h357l61 329h83l-137 -740h-83l63 338h-357z" />
    <glyph glyph-name="I" unicode="I" horiz-adv-x="231" 
d="M74 0l137 740h82l-137 -740h-82z" />
    <glyph glyph-name="J" unicode="J" horiz-adv-x="494" 
d="M558 740l-93 -501q-17 -94 -46 -140q-30 -45 -74 -73q-64 -39 -135 -39q-24 0 -50 7t-54.5 22.5t-47 47t-20.5 74.5q-2 17 0 35h89q-1 -5 -1 -15q4 -37 22.5 -60t38.5 -30.5t40 -7.5q43 1 75 21t47 48q20 37 30 94l96 517h83z" />
    <glyph glyph-name="K" unicode="K" horiz-adv-x="593" 
d="M90 0l137 740h82l-66 -358l367 358h90l-378 -369l272 -371h-103l-254 351l-65 -351h-82z" />
    <glyph glyph-name="L" unicode="L" horiz-adv-x="444" 
d="M75 0l137 740h83l-123 -667h282l-14 -73h-365z" />
    <glyph glyph-name="M" unicode="M" horiz-adv-x="927" 
d="M151 0h-77l137 740h116l159 -621l388 621h116l-137 -740h-78l124 658l-409 -658h-53l-166 658z" />
    <glyph glyph-name="N" unicode="N" horiz-adv-x="745" 
d="M295 740l320 -618l113 618h80l-137 -740h-80l-324 623l-113 -623h-80l137 740h84z" />
    <glyph glyph-name="O" unicode="O" horiz-adv-x="851" 
d="M107 367v1q31 168 164.5 276.5t293.5 108.5q163 0 254 -110.5t61 -272.5q-31 -163 -162.5 -273t-294.5 -110t-254 110.5t-62 269.5zM191 371v-1q-25 -131 46 -220.5t200 -89.5t233 90.5t128 219.5t-46.5 219.5t-200.5 90.5t-233.5 -90t-126.5 -219z" />
    <glyph glyph-name="P" unicode="P" horiz-adv-x="552" 
d="M204 740h195q78 0 119.5 -10.5t70.5 -36.5q31 -28 44 -76t3 -100t-40 -101t-69 -75q-42 -28 -86.5 -39t-117.5 -11h-119l-54 -291h-83zM274 667l-57 -303h118q90 0 143 31q28 16 49 49t28 71q7 39 -2 72t-31 49q-43 31 -132 31h-116z" />
    <glyph glyph-name="Q" unicode="Q" horiz-adv-x="877" 
d="M886 57l-13 -70q-40 4 -59 7q-36 5 -65 15.5t-44 20t-36 25.5q-116 -69 -235 -69q-171 0 -258 114t-59 269q30 160 162 272t296 112q165 0 255 -111t61 -270q-10 -52 -29 -97t-45 -79.5t-41.5 -51t-38.5 -37.5q53 -39 149 -50zM561 680h-1q-120 0 -220 -80.5t-131 -204.5
q-10 -51 -6 -93q88 27 156 27q111 0 189 -53q17 -11 34 -25t32 -28.5l66 -63.5q105 82 129 213q24 133 -48 220.5t-200 87.5zM448 59h1q94 0 170 49q-9 11 -46.5 46.5t-39.5 37.5q-85 66 -196 66q-61 0 -132 -25q15 -52 45.5 -88.5t67.5 -54t68.5 -24.5t61.5 -7z" />
    <glyph glyph-name="R" unicode="R" horiz-adv-x="587" 
d="M67 0l137 740h193q149 0 201 -38q40 -27 58 -82t6 -117q-13 -83 -71 -145q-38 -42 -79.5 -58.5t-100.5 -22.5l133 -277h-90l-149 323h24q123 0 171 38q66 54 81 136q8 42 -4.5 81.5t-41.5 61.5q-37 27 -145 27h-116l-124 -667h-83z" />
    <glyph glyph-name="S" unicode="S" horiz-adv-x="536" 
d="M76 206h83q-7 -81 33 -115t88 -34q59 0 110.5 40.5t63.5 100.5q6 35 -2 61t-30 42t-45.5 26.5t-56.5 21.5q-9 3 -13 4q-26 8 -41 14t-43 22.5t-43 35.5t-23.5 51.5t-1.5 72.5q16 94 92 149t166 55q36 0 68 -10.5t58.5 -32t39.5 -60t8 -88.5h-82q0 121 -108 121
q-57 0 -103 -35.5t-56 -91.5q-6 -32 0.5 -54.5t30 -39t48 -27t68.5 -26.5l9 -3q17 -7 21 -8.5t21 -9.5t23 -12l20.5 -13.5t20 -17t16 -19t14 -24l8 -27.5t4 -33t-4.5 -38q-18 -93 -92.5 -155t-176.5 -62q-97 0 -152 58.5t-40 160.5z" />
    <glyph glyph-name="T" unicode="T" horiz-adv-x="462" 
d="M189 0l124 667h-182l13 73h448l-13 -73h-183l-124 -667h-83z" />
    <glyph glyph-name="U" unicode="U" horiz-adv-x="636" 
d="M209 740h83l-87 -469q-6 -36 -8.5 -54t1 -44.5t15.5 -50.5q14 -28 45.5 -45t71.5 -17t77.5 16.5t60.5 44.5q21 23 34 50t17.5 44t11.5 56l87 469h82l-87 -469q-13 -77 -40.5 -133t-85.5 -95q-77 -56 -170 -56q-101 0 -153 56q-31 30 -43 71t-10 74.5t11 82.5z" />
    <glyph glyph-name="V" unicode="V" horiz-adv-x="685" 
d="M302 0l-155 740h87l128 -633l363 633h87l-431 -740h-79z" />
    <glyph glyph-name="W" unicode="W" horiz-adv-x="919" 
d="M218 0l-68 740h85l52 -627l278 627h62l49 -627l282 627h84l-344 -740h-81l-47 601l-269 -601h-83z" />
    <glyph glyph-name="X" unicode="X" horiz-adv-x="623" 
d="M9 0l325 382l-172 358h95l136 -295l246 295h94l-303 -359l184 -381h-95l-152 321l-266 -321h-92z" />
    <glyph glyph-name="Y" unicode="Y" horiz-adv-x="585" 
d="M251 0l48 260l-149 480h90l116 -400l263 400h90l-327 -480l-48 -260h-83z" />
    <glyph glyph-name="Z" unicode="Z" horiz-adv-x="499" 
d="M601 677l-468 -604h371l-14 -73h-471l10 53l477 614h-373l13 73h467z" />
    <glyph glyph-name="bracketleft" unicode="[" horiz-adv-x="441" 
d="M346 -129l-12 -65h-246l173 934h246l-12 -64h-173l-149 -805h173z" />
    <glyph glyph-name="backslash" unicode="\" horiz-adv-x="543" 
d="M372 -100l-166 840h83l166 -840h-83z" />
    <glyph glyph-name="bracketright" unicode="]" horiz-adv-x="441" 
d="M35 -194l12 65h172l149 805h-172l12 64h245l-173 -934h-245z" />
    <glyph glyph-name="asciicircum" unicode="^" horiz-adv-x="600" 
d="M158 375l241 365h76l105 -365h-81l-75 296l-185 -296h-81z" />
    <glyph glyph-name="underscore" unicode="_" horiz-adv-x="500" 
d="M477 -125h-500l9 50h500z" />
    <glyph glyph-name="grave" unicode="`" horiz-adv-x="555" 
d="M304 780l214 -135l-33 -47l-217 128z" />
    <glyph glyph-name="a" unicode="a" horiz-adv-x="684" 
d="M712 538l-100 -538h-74l21 111q-42 -60 -106.5 -93t-137.5 -33q-126 0 -187 84t-39 200q22 120 116 202t215 82q80 0 132 -38.5t65 -89.5l21 113h74zM162 269v-1q-9 -36 -0.5 -74t26.5 -69t57.5 -51t92.5 -20q69 0 127 36t91 95q26 40 34 85q10 44 -1 86q-12 57 -58 93
t-115 36q-92 0 -164.5 -62.5t-89.5 -153.5z" />
    <glyph glyph-name="b" unicode="b" horiz-adv-x="680" 
d="M72 0l137 740h74l-37 -202l-20 -108q44 57 107.5 89.5t133.5 33.5q117 0 182.5 -79.5t42.5 -203.5q-23 -122 -116.5 -203.5t-215.5 -81.5q-75 0 -126 33.5t-70 92.5l-21 -111h-71zM618 269v1q17 92 -33 153.5t-140 61.5q-92 0 -164 -62.5t-89 -152.5t30.5 -153t139.5 -63
q101 0 170.5 65t85.5 150z" />
    <glyph glyph-name="c" unicode="c" horiz-adv-x="630" 
d="M553 182h77q-43 -87 -127 -142t-179 -55q-131 0 -194 85t-42 199q22 120 118 202t218 82q94 0 161 -53.5t76 -147.5h-76q-12 65 -60.5 99t-109.5 34q-87 0 -163 -61q-33 -27 -57.5 -68.5t-32.5 -86.5q-18 -94 32.5 -154.5t139.5 -60.5q73 1 132 38t87 90z" />
    <glyph glyph-name="d" unicode="d" horiz-adv-x="684" 
d="M747 740l-137 -740h-71l21 111q-92 -126 -246 -126q-125 0 -186 83.5t-39 201.5q23 121 116 202t213 81q82 0 134 -38t64 -86l21 114l36 197h74zM162 270v-1q-15 -87 30.5 -151t145.5 -64q91 0 165 63q74 65 88 155q18 90 -34 151q-48 62 -140 62q-93 0 -165.5 -62
t-89.5 -153z" />
    <glyph glyph-name="e" unicode="e" horiz-adv-x="628" 
d="M641 248h-490q-10 -64 15.5 -111t67.5 -68t90 -20q62 0 116 29t90 82h77q-53 -86 -134 -131q-76 -44 -161 -44q-89 0 -147.5 43.5t-77.5 106.5t-6 133q22 119 118.5 202t216.5 83q118 0 183 -76q80 -94 42 -229zM163 307h416q9 73 -41.5 129t-131.5 54q-85 0 -154.5 -54
t-88.5 -129z" />
    <glyph glyph-name="f" unicode="f" horiz-adv-x="280" 
d="M85 0l89 479h-79l11 59h79l8 44q32 171 221 171l-11 -59q-19 -1 -27.5 -2t-30.5 -7.5t-34.5 -17.5t-26 -35t-19.5 -57l-7 -37h116l-11 -59h-116l-89 -479h-73z" />
    <glyph glyph-name="g" unicode="g" horiz-adv-x="681" 
d="M710 538l-89 -476q-24 -136 -119 -212q-46 -39 -105 -61t-114 -22q-97 0 -159 49t-75 125h85q17 -45 51 -71q47 -39 112 -39q82 0 156 59t91 155l13 69q-41 -59 -103 -94t-138 -35q-124 0 -187 82t-41 201q23 122 117 203.5t216 81.5q76 0 128.5 -36.5t66.5 -89.5l21 111
h73zM162 270v-1q-16 -87 30.5 -151t145.5 -64q90 0 162 62q71 61 89 152q14 80 -23 141q-44 75 -150 75q-90 0 -163.5 -60.5t-90.5 -153.5z" />
    <glyph glyph-name="h" unicode="h" horiz-adv-x="637" 
d="M72 0l137 740h74l-36 -197l-18 -93q34 51 92.5 78t118.5 25q119 0 165 -74q39 -65 16 -189l-54 -290h-73l53 287q17 91 -12 142q-36 55 -125 55q-85 0 -141 -53q-52 -47 -66 -125l-57 -306h-74z" />
    <glyph glyph-name="i" unicode="i" horiz-adv-x="218" 
d="M190 637l19 103h74l-19 -103h-74zM72 0l100 538h74l-100 -538h-74z" />
    <glyph glyph-name="j" unicode="j" horiz-adv-x="253" 
d="M210 637l19 103h74l-19 -103h-74zM266 538l-99 -530q-8 -44 -17 -73.5t-29 -63.5t-56 -54t-88 -26q-15 0 -23 -1l12 62q10 0 14 1q55 9 77.5 45.5t35.5 107.5l99 532h74z" />
    <glyph glyph-name="k" unicode="k" horiz-adv-x="508" 
d="M74 0l137 740h74l-78 -423l283 221h91l-303 -236l215 -302h-87l-205 286l-53 -286h-74z" />
    <glyph glyph-name="l" unicode="l" horiz-adv-x="217" 
d="M72 0l137 740h74l-137 -740h-74z" />
    <glyph glyph-name="m" unicode="m" horiz-adv-x="956" 
d="M72 0l100 538h70l-16 -85q33 48 85.5 74t102.5 26q93 0 136 -61q10 -12 25 -56q29 39 49 57q68 60 159 60q94 0 135 -54q28 -34 33 -82t-9 -118l-55 -299h-74l55 296q17 99 -14 143q-26 45 -98 45q-81 0 -129 -56q-24 -27 -35 -53.5t-21 -75.5l-55 -299h-74l55 299
q18 79 -4 128q-29 56 -107 57q-36 1 -69.5 -14.5t-54.5 -40.5q-46 -49 -60 -129l-56 -300h-74z" />
    <glyph glyph-name="n" unicode="n" horiz-adv-x="638" 
d="M72 0l100 538h70q-1 -4 -7.5 -39.5t-11.5 -56.5q33 53 91 82.5t129 28.5q80 -1 126.5 -36t55.5 -89.5t-1 -121.5l-57 -306h-73l54 291q16 91 -17 142.5t-120 50.5q-83 -1 -138 -48.5t-71 -131.5l-56 -304h-74z" />
    <glyph glyph-name="o" unicode="o" horiz-adv-x="649" 
d="M89 269v1q22 117 116.5 200t220.5 83q127 0 191.5 -83.5t42.5 -200.5t-117 -200t-222 -83q-126 0 -190 83t-42 200zM162 269v-1q-17 -91 32.5 -152.5t139.5 -61.5t162.5 61.5t89.5 153.5t-32.5 153.5t-139.5 61.5t-162.5 -61.5t-89.5 -153.5z" />
    <glyph glyph-name="p" unicode="p" horiz-adv-x="684" 
d="M34 -204l138 742h70l-21 -112q45 60 108.5 93.5t139.5 33.5q86 0 143 -43t75 -107t5 -136q-21 -116 -113.5 -199t-214.5 -83q-82 0 -133.5 38t-64.5 87l-20 -110l-38 -204h-74zM619 269v1q10 53 -4 100.5t-58.5 81t-113.5 33.5q-90 0 -164 -63q-72 -64 -88 -154
q-17 -91 33 -153q50 -61 141 -61t164 61.5t90 153.5z" />
    <glyph glyph-name="q" unicode="q" horiz-adv-x="682" 
d="M710 538l-138 -742h-74l38 204l20 109q-31 -48 -96.5 -86t-148.5 -38q-121 0 -183 82t-40 199q23 122 116 204.5t216 82.5q78 0 128.5 -34.5t70.5 -88.5l20 108h71zM162 268l-1 -1q-16 -89 34 -151t142 -62q90 0 163 62q73 60 90 152q20 90 -32 153q-50 64 -140 64
q-101 0 -170 -65.5t-86 -151.5z" />
    <glyph glyph-name="r" unicode="r" horiz-adv-x="322" 
d="M72 0l100 538h70l-17 -88q67 99 191 103l-13 -73h-7q-78 0 -129 -48t-68 -139l-54 -293h-73z" />
    <glyph glyph-name="s" unicode="s" horiz-adv-x="450" 
d="M462 403h-73q7 42 -14 65.5t-62 23.5q-43 0 -73.5 -25.5t-35.5 -61.5t17 -55.5t72 -35.5l45.5 -13.5t38.5 -17.5t34.5 -28t17.5 -40.5t2 -58.5q-10 -73 -71.5 -122t-138.5 -49q-72 0 -119.5 44.5t-33.5 123.5h73q-7 -52 21 -79.5t72 -27.5q46 0 80.5 29.5t41.5 71.5
q7 44 -19 68t-95 45q-63 20 -93 50t-20 89q13 70 69 112t127 42q64 0 105.5 -37t31.5 -113z" />
    <glyph glyph-name="t" unicode="t" horiz-adv-x="314" 
d="M114 0l89 479h-106l11 59h106l37 202h73l-37 -202h118l-11 -59h-118l-89 -479h-73z" />
    <glyph glyph-name="u" unicode="u" horiz-adv-x="639" 
d="M667 538l-100 -538h-70l18 96q-32 -53 -90 -82.5t-130 -28.5q-117 2 -159 71t-22 177l57 305h73l-54 -291q-17 -91 16 -142.5t121 -50.5q84 1 139 48.5t70 131.5l57 304h74z" />
    <glyph glyph-name="v" unicode="v" horiz-adv-x="518" 
d="M609 538l-312 -538h-77l-112 538h78l90 -447l255 447h78z" />
    <glyph glyph-name="w" unicode="w" horiz-adv-x="788" 
d="M196 0l-87 538h78l66 -443l202 395h61l57 -395l229 443h77l-286 -538h-73l-54 392l-198 -392h-72z" />
    <glyph glyph-name="x" unicode="x" horiz-adv-x="481" 
d="M7 0l239 276l-131 262h90l96 -207l175 207h88l-228 -262l138 -276h-90l-104 217l-183 -217h-90z" />
    <glyph glyph-name="y" unicode="y" horiz-adv-x="512" 
d="M86 -204l132 214l-110 528h79l88 -435l255 435h81l-445 -742h-80z" />
    <glyph glyph-name="z" unicode="z" horiz-adv-x="419" 
d="M13 0l10 54l377 425h-286l11 59h369l-11 -60l-370 -419h303l-11 -59h-392z" />
    <glyph glyph-name="braceleft" unicode="{" horiz-adv-x="468" 
d="M529 749l-11 -59h-54q-38 0 -53.5 -21t-25.5 -78l-36 -193q-10 -52 -46.5 -98t-73.5 -65q34 -12 53 -53.5t8 -99.5l-35 -192q-12 -58 -4 -79t46 -21h54l-11 -59h-86q-105 0 -82 130l36 192q20 109 -59 145l14 76q34 7 68 47.5t46 102.5l36 197q23 128 130 128h86z" />
    <glyph glyph-name="bar" unicode="|" horiz-adv-x="412" 
d="M243 871h66v-1161h-66v1161z" />
    <glyph glyph-name="braceright" unicode="}" horiz-adv-x="468" 
d="M206 690l11 59h86q105 0 82 -128l-36 -197q-12 -62 7 -102.5t51 -47.5l-14 -76q-93 -36 -113 -145l-36 -192q-23 -130 -130 -130h-86l11 59h54q38 0 53 20t27 80l35 192q10 55 47.5 97.5t71.5 56.5q-36 18 -53 62.5t-7 99.5l36 193q12 53 3.5 76t-46.5 23h-54z" />
    <glyph glyph-name="asciitilde" unicode="~" horiz-adv-x="600" 
d="M561 319l12 -65q-59 -77 -122 -77q-38 0 -104 35q-66 36 -106 36q-58 3 -109 -64l-13 64q59 81 138 78q35 0 109 -36l20.5 -10l21.5 -10.5t18 -7.5t20 -6t18 -2q18 0 37 11t30.5 22.5t29.5 31.5z" />
    <glyph glyph-name="uni00A0" unicode="&#xa0;" horiz-adv-x="288" 
 />
    <glyph glyph-name="exclamdown" unicode="&#xa1;" horiz-adv-x="284" 
d="M183 428l21 111h76l-21 -111h-76zM67 -201l101 548h76l-101 -548h-76z" />
    <glyph glyph-name="cent" unicode="&#xa2;" 
d="M338 36h-66l20 107q-96 16 -133.5 84t-23.5 143q14 77 76.5 145.5t164.5 84.5l18 98h64l-18 -98q128 -26 154 -147h-79q-27 76 -119 76q-69 0 -121.5 -45.5t-64.5 -110.5t21.5 -112t106.5 -47q91 0 144 71h82q-39 -63 -96 -98t-110 -44z" />
    <glyph glyph-name="sterling" unicode="&#xa3;" 
d="M481 401l-11 -62h-189q69 -69 52 -153q-10 -57 -65 -119h75q77 0 125 33q53 46 64 105q4 21 1 45h75q2 -30 -3 -54q-15 -78 -80 -137q-40 -32 -80 -45.5t-108 -13.5h-298l12 67h115q69 32 85 114q15 81 -62 158h-117l11 62h73q-27 49 -16 113q19 98 101.5 169t191.5 71
q89 0 147 -55t57 -150h-79q-4 57 -40 94.5t-98 37.5q-73 -1 -127 -48t-70 -120q-10 -63 24 -112h234z" />
    <glyph glyph-name="currency" unicode="&#xa4;" 
d="M522 83l-63 78q-74 -49 -150 -49q-78 0 -132 49l-94 -78l-33 41l95 79q-39 62 -25 139q15 81 76 140l-66 80l49 41l66 -81q72 50 149 50q78 0 130 -49l95 80l33 -41l-94 -80q38 -62 24 -140q-13 -76 -76 -139l65 -79zM191 342v-1q-12 -64 27.5 -110.5t103.5 -46.5
t120 46.5t68 111.5q13 66 -25.5 112.5t-103.5 46.5t-121 -46.5t-69 -112.5z" />
    <glyph glyph-name="yen" unicode="&#xa5;" 
d="M621 447l-12 -63h-193l-23 -34l-12 -65h210l-12 -63h-211l-41 -222h-81l41 222h-208l12 63h208l12 64l-12 35h-190l12 63h157l-119 293h87l120 -313l239 313h87l-229 -293h158z" />
    <glyph glyph-name="brokenbar" unicode="&#xa6;" horiz-adv-x="412" 
d="M243 784h65v-406h-65v406zM243 203h65v-405h-65v405z" />
    <glyph glyph-name="section" unicode="&#xa7;" horiz-adv-x="605" 
d="M618 573h-73q4 64 -26.5 87.5t-84.5 23.5q-53 0 -93.5 -29t-50.5 -79q-5 -30 6.5 -52.5t24.5 -32t36 -20.5l148 -74q7 -4 10.5 -5.5t12.5 -7t14 -9.5l13.5 -11t13.5 -14l11.5 -16t10 -19.5t6 -22t2.5 -25t-3 -28.5q-16 -95 -121 -156q54 -53 39 -132q-15 -80 -83.5 -135
t-166.5 -55q-100 0 -157.5 57t-35.5 171h73q-15 -80 20 -119t111 -39q67 0 111 33t56 86q5 37 -13.5 62.5t-65.5 49.5l-171 86q-10 5 -11.5 6t-13 8t-15 10.5l-13 12.5t-13.5 17l-10 20t-7 24.5t-1 29.5t3 35q6 38 37 80.5t90 74.5q-31 49 -20 109q15 84 82 131t150 47
q91 0 136.5 -50t31.5 -130zM526 228v1q6 29 -6 52t-26 33t-40 23l-177 91q-82 -37 -96 -110q-11 -69 50 -101l200 -100q29 12 58.5 43t36.5 68z" />
    <glyph glyph-name="dieresis" unicode="&#xa8;" horiz-adv-x="555" 
d="M358 748l-24 -128h-72l24 128h72zM546 748l-24 -128h-72l24 128h72z" />
    <glyph glyph-name="copyright" unicode="&#xa9;" horiz-adv-x="800" 
d="M540 752h1q160 0 249.5 -111.5t60.5 -270.5q-30 -161 -162 -271.5t-291 -110.5q-160 0 -250.5 110t-60.5 272q29 158 159.5 270t293.5 112zM532 709h-1q-143 0 -257.5 -99.5t-140.5 -239.5q-27 -142 52.5 -240.5t220.5 -98.5q140 0 255.5 98t142.5 241q26 140 -52 239.5
t-220 99.5zM681 446h-53q-2 56 -37 80.5t-83 24.5q-72 0 -126 -50.5t-68 -129.5q-16 -88 22 -134t104 -46q11 0 24 1.5t35.5 9.5t42 21.5t39.5 41t32 63.5h54q-23 -85 -89.5 -135t-147.5 -50q-89 0 -139.5 60.5t-30.5 166.5q18 100 88.5 164.5t168.5 64.5q78 0 123.5 -44
t40.5 -109z" />
    <glyph glyph-name="ordfeminine" unicode="&#xaa;" horiz-adv-x="421" 
d="M510 745l-59 -318h-51l12 65q-50 -73 -140 -73q-73 0 -111.5 49t-25.5 118q13 72 71 119.5t128 47.5q86 0 113 -75l12 67h51zM186 584v-1q-8 -42 18.5 -79t82.5 -37q75 0 121 65q16 24 22 54q5 28 -1 50q-9 31 -35.5 50t-63.5 19q-50 0 -92 -34t-52 -87z" />
    <glyph glyph-name="guillemotleft" unicode="&#xab;" horiz-adv-x="375" 
d="M91 279l143 190h62l-143 -190l73 -188h-62zM225 279l144 190h62l-144 -190l74 -188h-62z" />
    <glyph glyph-name="logicalnot" unicode="&#xac;" horiz-adv-x="600" 
d="M121 389h502l-48 -260h-71l35 188h-431z" />
    <glyph glyph-name="uni00AD" unicode="&#xad;" horiz-adv-x="271" 
d="M59 317h271l-14 -73h-271z" />
    <glyph glyph-name="registered" unicode="&#xae;" horiz-adv-x="800" 
d="M540 752h1q160 0 249.5 -111.5t60.5 -270.5q-30 -161 -162 -271.5t-291 -110.5q-160 0 -250.5 110t-60.5 272q29 158 159.5 270t293.5 112zM532 709h-1q-143 0 -257.5 -99.5t-140.5 -239.5q-26 -142 53 -240.5t220 -98.5q140 0 255.5 98t142.5 241q26 140 -51.5 239.5
t-220.5 99.5zM345 588h183q17 0 33.5 -2t38 -9t36 -19t22.5 -35t2 -54q-14 -76 -100 -107q35 -11 46.5 -34.5t6.5 -65.5q-8 -70 -9 -80.5t3 -30.5h-54q-5 11 6 101q2 25 0.5 44.5t-25 31.5t-73.5 12h-108l-35 -189h-54zM511 547h-120l-31 -167h110q2 0 13.5 1t18.5 1.5
t20 3.5t21.5 6.5t20 10t18.5 14.5t13.5 21t9.5 28q5 28 -3.5 46t-28 24.5t-32.5 8.5t-30 2z" />
    <glyph glyph-name="macron" unicode="&#xaf;" horiz-adv-x="555" 
d="M588 711l-12 -62h-357l12 62h357z" />
    <glyph glyph-name="degree" unicode="&#xb0;" horiz-adv-x="400" 
d="M448 567v-1q-11 -59 -60 -100.5t-109 -41.5t-94 41.5t-23 101.5t60.5 101.5t109.5 41.5t93.5 -41.5t22.5 -101.5zM209 567v-1q-8 -40 15 -68t63 -28t73 28t41 69q8 40 -15 68.5t-63 28.5t-73 -28.5t-41 -68.5z" />
    <glyph glyph-name="plusminus" unicode="&#xb1;" horiz-adv-x="600" 
d="M328 346l33 177h72l-33 -177h216l-13 -72h-216l-33 -175h-72l33 175h-216l13 72h216zM43 -27l13 72h504l-13 -72h-504z" />
    <glyph glyph-name="twosuperior" unicode="&#xb2;" horiz-adv-x="370" 
d="M394 348l-9 -52h-294l9 48l198 165q69 59 77 102q7 36 -7.5 60.5t-56.5 24.5q-39 0 -66.5 -29.5t-36.5 -75.5h-59q11 62 47 101q51 56 128 56q66 0 97.5 -35t19.5 -97q-11 -62 -87 -127l-167 -141h207z" />
    <glyph glyph-name="threesuperior" unicode="&#xb3;" horiz-adv-x="370" 
d="M109 431h62q-7 -45 15.5 -68t58.5 -23q42 0 70.5 25t36.5 64q5 33 -14 60.5t-66 27.5h-36l8 46h26q41 0 64.5 22t28.5 46q5 26 -8 45t-42 20q-31 1 -52 -18t-27 -48h-61q9 43 37.5 71t57 37.5t56.5 9.5q51 0 80 -32t20 -79q-11 -60 -74 -92q35 -14 52.5 -46.5t10.5 -71.5
q-11 -60 -62.5 -99.5t-116.5 -39.5q-84 0 -115 58q-18 37 -10 85z" />
    <glyph glyph-name="acute" unicode="&#xb4;" horiz-adv-x="555" 
d="M277 648l263 135l17 -54l-265 -129z" />
    <glyph glyph-name="mu" unicode="&#xb5;" horiz-adv-x="585" 
d="M35 -184l134 722h74l-54 -291q-19 -99 7 -141q31 -52 105 -52q73 0 125 58q51 56 72 167l48 259h73l-100 -538h-71l19 102q-67 -114 -178 -114q-99 0 -134 78l-14 -77l-32 -173h-74z" />
    <glyph glyph-name="paragraph" unicode="&#xb6;" horiz-adv-x="607" 
d="M206 -118l86 465q-98 0 -150.5 49t-35.5 145q10 56 39.5 96.5t70 62t82 31t85.5 9.5h284l-11 -58h-59l-148 -800h-62l148 799h-119l-148 -799h-62z" />
    <glyph glyph-name="periodcentered" unicode="&#xb7;" horiz-adv-x="289" 
d="M241 310l-20 -111h-78l20 111h78z" />
    <glyph glyph-name="cedilla" unicode="&#xb8;" horiz-adv-x="555" 
d="M297 0l-36 -56q6 3 16 3q33 0 50.5 -22t11.5 -55q-7 -34 -34 -60t-68 -26q-9 0 -18 2t-23.5 8.5t-23 22.5t-7.5 40h43q4 -33 36 -33q18 0 32.5 12t19.5 34q3 18 -7 29.5t-27 11.5q-24 0 -41 -22l-34 15l63 96h47z" />
    <glyph glyph-name="onesuperior" unicode="&#xb9;" horiz-adv-x="370" 
d="M358 740l-82 -444h-59l73 392h-90l9 52h149z" />
    <glyph glyph-name="ordmasculine" unicode="&#xba;" horiz-adv-x="421" 
d="M150 584v1q13 70 69 119t130 49q76 0 114 -49.5t25 -117.5q-13 -70 -71.5 -118.5t-129.5 -48.5t-110 49t-27 116zM201 584v-1q-8 -47 19.5 -81.5t75.5 -34.5t89.5 34t51.5 85q8 49 -18.5 84t-76.5 35q-48 0 -89.5 -34t-51.5 -87z" />
    <glyph glyph-name="guillemotright" unicode="&#xbb;" horiz-adv-x="375" 
d="M314 468l74 -190l-144 -188h-62l144 188l-74 190h62zM180 468l73 -190l-143 -188h-62l143 188l-73 190h62z" />
    <glyph glyph-name="onequarter" unicode="&#xbc;" horiz-adv-x="766" 
d="M683 740l-461 -740h-64l460 740h65zM685 368l-200 -238h156zM331 740l-82 -444h-59l73 392h-90l9 52h149zM758 444l-58 -314h45l-9 -48h-45l-15 -82h-60l15 82h-221l8 43l279 319h61z" />
    <glyph glyph-name="onehalf" unicode="&#xbd;" horiz-adv-x="806" 
d="M331 740l-82 -444h-59l73 392h-90l9 52h149zM683 740l-461 -740h-64l460 740h65zM772 52l-10 -52h-295l9 48l199 165q69 59 77 102q7 36 -8 60.5t-57 24.5q-39 0 -66.5 -29.5t-35.5 -75.5h-60q11 57 42 96q52 61 134 61q66 0 97.5 -35t19.5 -97q-11 -64 -87 -127
l-166 -141h207z" />
    <glyph glyph-name="threequarters" unicode="&#xbe;" horiz-adv-x="871" 
d="M793 369l-201 -239h157zM793 740l-461 -740h-64l459 740h66zM866 444l-58 -314h45l-9 -48h-45l-15 -82h-60l15 82h-221l8 43l279 319h61zM120 431h62q-7 -45 15.5 -68t58.5 -23q42 0 70.5 25t36.5 64q5 33 -14 60.5t-66 27.5h-36l8 46h26q41 0 64.5 22t28.5 46
q5 26 -8 45t-42 20q-31 1 -52 -18t-27 -48h-61q9 43 37.5 71t57 37.5t56.5 9.5q51 0 80 -32t20 -79q-11 -60 -74 -92q35 -14 52.5 -46.5t10.5 -71.5q-11 -60 -62.5 -99.5t-116.5 -39.5q-38 0 -69.5 16t-45.5 45q-17 31 -10 82z" />
    <glyph glyph-name="questiondown" unicode="&#xbf;" horiz-adv-x="555" 
d="M332 428l21 110h77l-21 -110h-77zM317 349h78q-13 -58 -40 -102.5t-92 -97.5q-43 -36 -58.5 -50t-35 -41t-26.5 -56q-11 -59 21.5 -99t94.5 -40q52 0 99.5 32t67.5 91q6 18 8 28h81q-1 -3 -3 -11.5t-3 -13.5q-28 -98 -106.5 -151t-161.5 -53q-94 0 -146 61.5t-36 149.5
q7 39 34 77t51 60t68 56q39 32 63 65t30 50t12 45z" />
    <glyph glyph-name="Agrave" unicode="&#xc0;" horiz-adv-x="711" 
d="M221 208l-124 -208h-89l446 740h80l169 -740h-90l-47 208h-345zM553 276l-79 371l-216 -371h295zM411 955l214 -134l-33 -48l-217 128z" />
    <glyph glyph-name="Aacute" unicode="&#xc1;" horiz-adv-x="711" 
d="M221 208l-124 -208h-89l446 740h80l169 -740h-90l-47 208h-345zM553 276l-79 371l-216 -371h295zM391 823l263 135l17 -54l-264 -129z" />
    <glyph glyph-name="Acircumflex" unicode="&#xc2;" horiz-adv-x="711" 
d="M221 208l-124 -208h-89l446 740h80l169 -740h-90l-47 208h-345zM553 276l-79 371l-216 -371h295zM555 927l150 -133h-83l-105 82l-134 -82h-83l201 133h54z" />
    <glyph glyph-name="Atilde" unicode="&#xc3;" horiz-adv-x="711" 
d="M221 208l-124 -208h-89l446 740h80l169 -740h-90l-47 208h-345zM553 276l-79 371l-216 -371h295zM681 904l22 -50q-51 -39 -108 -39q-34 0 -88 18q-46 16 -76 16q-44 0 -81 -30l-23 51q49 39 107 39q40 0 88 -18q44 -16 77 -16q47 0 82 29z" />
    <glyph glyph-name="Adieresis" unicode="&#xc4;" horiz-adv-x="711" 
d="M221 208l-124 -208h-89l446 740h80l169 -740h-90l-47 208h-345zM553 276l-79 371l-216 -371h295zM468 923l-24 -128h-72l24 128h72zM656 923l-24 -128h-72l24 128h72z" />
    <glyph glyph-name="Aring" unicode="&#xc5;" horiz-adv-x="711" 
d="M221 208l-124 -208h-89l446 740h80l169 -740h-90l-47 208h-345zM553 276l-79 371l-216 -371h295zM534 967h1q42 0 66.5 -30t16.5 -73q-8 -42 -43.5 -72t-78.5 -30t-67.5 30t-16.5 72q8 43 44 73t78 30zM526 923h-1q-23 0 -42.5 -17.5t-24.5 -40.5q-4 -23 10 -39.5
t37 -16.5q24 0 43.5 16.5t23.5 39.5q5 24 -8.5 41t-37.5 17z" />
    <glyph glyph-name="AE" unicode="&#xc6;" horiz-adv-x="954" 
d="M-9 0l650 740h384l-13 -73h-287l-48 -257h285l-14 -73h-285l-48 -264h287l-14 -73h-367l40 218h-282l-189 -218h-99zM332 284h242l65 355z" />
    <glyph glyph-name="Ccedilla" unicode="&#xc7;" horiz-adv-x="801" 
d="M426 -13l-29 -43q7 3 17 3q32 0 50.5 -22t12.5 -55q-7 -34 -34 -60t-68 -26q-9 0 -18.5 2t-23.5 8.5t-22.5 22.5t-8.5 40h43q4 -33 37 -33q17 0 32 12t19 34q4 18 -6 29.5t-28 11.5q-22 0 -41 -22l-33 15l56 86q-145 14 -222.5 122t-49.5 258q30 160 160.5 271.5
t295.5 111.5q65 0 120 -20t90.5 -53t58 -69t32.5 -74h-89q-8 20 -23.5 41.5t-41.5 46t-68.5 40t-92.5 15.5q-129 0 -232.5 -89.5t-127.5 -219.5q-25 -131 45.5 -221t199.5 -90q54 0 104 16.5t86 43.5t55 44.5t33 34.5h89q-55 -89 -157 -150t-220 -62z" />
    <glyph glyph-name="Egrave" unicode="&#xc8;" horiz-adv-x="541" 
d="M74 0l137 740h410l-13 -73h-328l-48 -257h326l-14 -73h-326l-48 -264h328l-14 -73h-410zM331 965l214 -134l-33 -48l-217 128z" />
    <glyph glyph-name="Eacute" unicode="&#xc9;" horiz-adv-x="541" 
d="M74 0l137 740h410l-13 -73h-328l-48 -257h326l-14 -73h-326l-48 -264h328l-14 -73h-410zM304 833l263 135l17 -54l-265 -129z" />
    <glyph glyph-name="Ecircumflex" unicode="&#xca;" horiz-adv-x="541" 
d="M74 0l137 740h410l-13 -73h-328l-48 -257h326l-14 -73h-326l-48 -264h328l-14 -73h-410zM472 937l150 -133h-83l-105 82l-134 -82h-83l201 133h54z" />
    <glyph glyph-name="Edieresis" unicode="&#xcb;" horiz-adv-x="541" 
d="M74 0l137 740h410l-13 -73h-328l-48 -257h326l-14 -73h-326l-48 -264h328l-14 -73h-410zM385 933l-24 -128h-72l24 128h72zM573 933l-24 -128h-72l24 128h72z" />
    <glyph glyph-name="Igrave" unicode="&#xcc;" horiz-adv-x="231" 
d="M74 0l137 740h82l-137 -740h-82zM154 962l213 -135l-32 -47l-218 128z" />
    <glyph glyph-name="Iacute" unicode="&#xcd;" horiz-adv-x="231" 
d="M74 0l137 740h82l-137 -740h-82zM171 830l263 135l16 -55l-264 -128z" />
    <glyph glyph-name="Icircumflex" unicode="&#xce;" horiz-adv-x="231" 
d="M74 0l137 740h82l-137 -740h-82zM315 930l151 -133h-83l-105 82l-134 -82h-83l200 133h54z" />
    <glyph glyph-name="Idieresis" unicode="&#xcf;" horiz-adv-x="231" 
d="M74 0l137 740h82l-137 -740h-82zM229 929l-23 -127h-72l23 127h72zM417 929l-23 -127h-72l23 127h72z" />
    <glyph glyph-name="Eth" unicode="&#xd0;" horiz-adv-x="715" 
d="M150 411l61 329h222q196 0 270 -111q70 -98 41 -258q-32 -170 -147.5 -270.5t-290.5 -100.5h-232l63 338h-74l13 73h74zM280 667l-48 -256h204l-13 -73h-204l-49 -265h147q140 0 229 79t114 216t-32 216q-61 83 -201 83h-147z" />
    <glyph glyph-name="Ntilde" unicode="&#xd1;" horiz-adv-x="745" 
d="M295 740l320 -618l113 618h80l-137 -740h-80l-324 623l-113 -623h-80l137 740h84zM697 901l23 -50q-48 -39 -109 -39q-35 0 -87 18q-45 15 -76 15q-45 0 -82 -29l-21 51q46 38 107 38q39 0 88 -17q43 -16 76 -16q47 0 81 29z" />
    <glyph glyph-name="Ograve" unicode="&#xd2;" horiz-adv-x="851" 
d="M107 367v1q31 168 164.5 276.5t293.5 108.5q163 0 254 -110.5t61 -272.5q-31 -163 -162.5 -273t-294.5 -110t-254 110.5t-62 269.5zM191 371v-1q-25 -131 46 -220.5t200 -89.5t233 90.5t128 219.5t-46.5 219.5t-200.5 90.5t-233.5 -90t-126.5 -219zM486 965l214 -134
l-33 -48l-217 128z" />
    <glyph glyph-name="Oacute" unicode="&#xd3;" horiz-adv-x="851" 
d="M107 367v1q31 168 164.5 276.5t293.5 108.5q163 0 254 -110.5t61 -272.5q-31 -163 -162.5 -273t-294.5 -110t-254 110.5t-62 269.5zM191 371v-1q-25 -131 46 -220.5t200 -89.5t233 90.5t128 219.5t-46.5 219.5t-200.5 90.5t-233.5 -90t-126.5 -219zM459 833l263 135
l17 -54l-265 -129z" />
    <glyph glyph-name="Ocircumflex" unicode="&#xd4;" horiz-adv-x="851" 
d="M107 367v1q31 168 164.5 276.5t293.5 108.5q163 0 254 -110.5t61 -272.5q-31 -163 -162.5 -273t-294.5 -110t-254 110.5t-62 269.5zM191 371v-1q-25 -131 46 -220.5t200 -89.5t233 90.5t128 219.5t-46.5 219.5t-200.5 90.5t-233.5 -90t-126.5 -219zM626 934l150 -134h-83
l-104 83l-135 -83h-83l201 134h54z" />
    <glyph glyph-name="Otilde" unicode="&#xd5;" horiz-adv-x="851" 
d="M107 367v1q31 168 164.5 276.5t293.5 108.5q163 0 254 -110.5t61 -272.5q-31 -163 -162.5 -273t-294.5 -110t-254 110.5t-62 269.5zM191 371v-1q-25 -131 46 -220.5t200 -89.5t233 90.5t128 219.5t-46.5 219.5t-200.5 90.5t-233.5 -90t-126.5 -219zM750 901l23 -50
q-49 -39 -109 -39q-35 0 -87 18q-45 15 -76 15q-45 0 -82 -29l-22 51q46 38 107 38q41 0 88 -17q44 -16 77 -16q47 0 81 29z" />
    <glyph glyph-name="Odieresis" unicode="&#xd6;" horiz-adv-x="851" 
d="M107 367v1q31 168 164.5 276.5t293.5 108.5q163 0 254 -110.5t61 -272.5q-31 -163 -162.5 -273t-294.5 -110t-254 110.5t-62 269.5zM191 371v-1q-25 -131 46 -220.5t200 -89.5t233 90.5t128 219.5t-46.5 219.5t-200.5 90.5t-233.5 -90t-126.5 -219zM540 933l-24 -128h-72
l24 128h72zM728 933l-24 -128h-72l24 128h72z" />
    <glyph glyph-name="multiply" unicode="&#xd7;" horiz-adv-x="600" 
d="M103 0l-42 51l233 197l-160 195l61 52l160 -196l234 196l41 -52l-233 -195l159 -197l-59 -51l-160 197z" />
    <glyph glyph-name="Oslash" unicode="&#xd8;" horiz-adv-x="851" 
d="M756 698l76 82h85l-113 -122q48 -48 70.5 -122t5.5 -166q-30 -162 -162 -272.5t-295 -110.5q-111 0 -187 52l-73 -79h-85l109 118q-50 49 -73.5 124t-5.5 168q30 164 162 273.5t295 109.5q111 0 191 -55zM249 144l449 492q-57 44 -147 44q-130 0 -233 -90t-127 -219
q-27 -143 58 -227zM744 594l-450 -493q57 -41 143 -41q130 0 233.5 91t127.5 219q24 133 -54 224z" />
    <glyph glyph-name="Ugrave" unicode="&#xd9;" horiz-adv-x="636" 
d="M209 740h83l-87 -469q-6 -36 -8.5 -54t1 -44.5t15.5 -50.5q14 -28 45.5 -45t71.5 -17t77.5 16.5t60.5 44.5q21 23 34 50t17.5 44t11.5 56l87 469h82l-87 -469q-13 -77 -40.5 -133t-85.5 -95q-77 -56 -170 -56q-101 0 -153 56q-31 30 -43 71t-10 74.5t11 82.5zM345 955
l214 -135l-33 -47l-217 128z" />
    <glyph glyph-name="Uacute" unicode="&#xda;" horiz-adv-x="636" 
d="M209 740h83l-87 -469q-6 -36 -8.5 -54t1 -44.5t15.5 -50.5q14 -28 45.5 -45t71.5 -17t77.5 16.5t60.5 44.5q21 23 34 50t17.5 44t11.5 56l87 469h82l-87 -469q-13 -77 -40.5 -133t-85.5 -95q-77 -56 -170 -56q-101 0 -153 56q-31 30 -43 71t-10 74.5t11 82.5zM362 823
l263 135l17 -54l-265 -129z" />
    <glyph glyph-name="Ucircumflex" unicode="&#xdb;" horiz-adv-x="636" 
d="M209 740h83l-87 -469q-6 -36 -8.5 -54t1 -44.5t15.5 -50.5q14 -28 45.5 -45t71.5 -17t77.5 16.5t60.5 44.5q21 23 34 50t17.5 44t11.5 56l87 469h82l-87 -469q-13 -77 -40.5 -133t-85.5 -95q-77 -56 -170 -56q-101 0 -153 56q-31 30 -43 71t-10 74.5t11 82.5zM518 927
l150 -133h-84l-104 82l-134 -82h-84l201 133h55z" />
    <glyph glyph-name="Udieresis" unicode="&#xdc;" horiz-adv-x="636" 
d="M209 740h83l-87 -469q-6 -36 -8.5 -54t1 -44.5t15.5 -50.5q14 -28 45.5 -45t71.5 -17t77.5 16.5t60.5 44.5q21 23 34 50t17.5 44t11.5 56l87 469h82l-87 -469q-13 -77 -40.5 -133t-85.5 -95q-77 -56 -170 -56q-101 0 -153 56q-31 30 -43 71t-10 74.5t11 82.5zM431 923
l-24 -128h-72l24 128h72zM619 923l-24 -128h-72l24 128h72z" />
    <glyph glyph-name="Yacute" unicode="&#xdd;" horiz-adv-x="585" 
d="M251 0l48 260l-149 480h90l116 -400l263 400h90l-327 -480l-48 -260h-83zM357 823l263 135l17 -54l-265 -129z" />
    <glyph glyph-name="Thorn" unicode="&#xde;" horiz-adv-x="552" 
d="M67 0l137 740h83l-25 -136h112q81 0 120.5 -10t69.5 -37q31 -28 43.5 -76t3.5 -100q-10 -52 -40 -101t-69 -75q-42 -29 -85 -39.5t-119 -10.5h-119l-29 -155h-83zM248 531l-56 -303h118q91 0 143 31q27 17 48.5 49.5t28.5 70.5q7 39 -2 71.5t-31 49.5q-43 31 -133 31
h-116z" />
    <glyph glyph-name="germandbls" unicode="&#xdf;" horiz-adv-x="604" 
d="M70 0l85 458q16 87 34 132t52 80q39 41 90 63t101 22q94 0 140.5 -57.5t30.5 -143.5q-22 -112 -128 -163q72 -12 105.5 -67t20.5 -125q-17 -90 -94 -152t-176 -62q-72 1 -116.5 39t-44.5 115l-26 -139h-74zM232 473l-51 -276h48q-10 -72 26 -107t92 -36q67 0 118 40.5
t62 101.5q15 68 -28 112q-39 36 -133 37h-40l11 59h29q55 0 103 40t59 100q12 67 -19.5 104.5t-95.5 37.5q-77 0 -125 -60q-24 -30 -35 -63t-21 -90z" />
    <glyph glyph-name="agrave" unicode="&#xe0;" horiz-adv-x="684" 
d="M712 538l-100 -538h-74l21 111q-42 -60 -106.5 -93t-137.5 -33q-126 0 -187 84t-39 200q22 120 116 202t215 82q80 0 132 -38.5t65 -89.5l21 113h74zM162 269v-1q-9 -36 -0.5 -74t26.5 -69t57.5 -51t92.5 -20q69 0 127 36t91 95q26 40 34 85q10 44 -1 86q-12 57 -58 93
t-115 36q-92 0 -164.5 -62.5t-89.5 -153.5zM364 780l214 -135l-33 -47l-217 128z" />
    <glyph glyph-name="aacute" unicode="&#xe1;" horiz-adv-x="684" 
d="M712 538l-100 -538h-74l21 111q-42 -60 -106.5 -93t-137.5 -33q-126 0 -187 84t-39 200q22 120 116 202t215 82q80 0 132 -38.5t65 -89.5l21 113h74zM162 269v-1q-9 -36 -0.5 -74t26.5 -69t57.5 -51t92.5 -20q69 0 127 36t91 95q26 40 34 85q10 44 -1 86q-12 57 -58 93
t-115 36q-92 0 -164.5 -62.5t-89.5 -153.5zM339 648l263 135l17 -54l-265 -129z" />
    <glyph glyph-name="acircumflex" unicode="&#xe2;" horiz-adv-x="684" 
d="M712 538l-100 -538h-74l21 111q-42 -60 -106.5 -93t-137.5 -33q-126 0 -187 84t-39 200q22 120 116 202t215 82q80 0 132 -38.5t65 -89.5l21 113h74zM162 269v-1q-9 -36 -0.5 -74t26.5 -69t57.5 -51t92.5 -20q69 0 127 36t91 95q26 40 34 85q10 44 -1 86q-12 57 -58 93
t-115 36q-92 0 -164.5 -62.5t-89.5 -153.5zM504 752l151 -133h-83l-105 82l-134 -82h-83l200 133h54z" />
    <glyph glyph-name="atilde" unicode="&#xe3;" horiz-adv-x="684" 
d="M712 538l-100 -538h-74l21 111q-42 -60 -106.5 -93t-137.5 -33q-126 0 -187 84t-39 200q22 120 116 202t215 82q80 0 132 -38.5t65 -89.5l21 113h74zM162 269v-1q-9 -36 -0.5 -74t26.5 -69t57.5 -51t92.5 -20q69 0 127 36t91 95q26 40 34 85q10 44 -1 86q-12 57 -58 93
t-115 36q-92 0 -164.5 -62.5t-89.5 -153.5zM630 719l22 -50q-50 -39 -108 -39q-36 0 -88 18q-46 16 -76 16q-43 0 -80 -30l-23 51q46 38 107 38q43 0 88 -17q43 -16 77 -16q47 0 81 29z" />
    <glyph glyph-name="adieresis" unicode="&#xe4;" horiz-adv-x="684" 
d="M712 538l-100 -538h-74l21 111q-42 -60 -106.5 -93t-137.5 -33q-126 0 -187 84t-39 200q22 120 116 202t215 82q80 0 132 -38.5t65 -89.5l21 113h74zM162 269v-1q-9 -36 -0.5 -74t26.5 -69t57.5 -51t92.5 -20q69 0 127 36t91 95q26 40 34 85q10 44 -1 86q-12 57 -58 93
t-115 36q-92 0 -164.5 -62.5t-89.5 -153.5zM412 748l-24 -128h-72l24 128h72zM600 748l-24 -128h-72l24 128h72z" />
    <glyph glyph-name="aring" unicode="&#xe5;" horiz-adv-x="684" 
d="M712 538l-100 -538h-74l21 111q-42 -60 -106.5 -93t-137.5 -33q-126 0 -187 84t-39 200q22 120 116 202t215 82q80 0 132 -38.5t65 -89.5l21 113h74zM162 269v-1q-9 -36 -0.5 -74t26.5 -69t57.5 -51t92.5 -20q69 0 127 36t91 95q26 40 34 85q10 44 -1 86q-12 57 -58 93
t-115 36q-92 0 -164.5 -62.5t-89.5 -153.5zM476 792h1q42 0 66.5 -30t16.5 -73q-8 -42 -43.5 -72t-78.5 -30t-67.5 30t-16.5 72q7 42 43.5 72.5t78.5 30.5zM468 748h-1q-23 0 -42.5 -17.5t-24.5 -40.5q-4 -23 9.5 -39.5t37.5 -16.5t43 16.5t24 39.5q5 24 -8.5 41t-37.5 17z
" />
    <glyph glyph-name="ae" unicode="&#xe6;" horiz-adv-x="1133" 
d="M1140 250h-485q-5 -58 11 -100t45.5 -62.5t58 -29.5t56.5 -9q111 0 205 111h77q-47 -76 -123.5 -125.5t-164.5 -49.5q-75 0 -124.5 37.5t-65.5 104.5l-24 -127h-69l24 127q-33 -61 -102 -101.5t-143 -40.5q-56 0 -100.5 18t-70 47.5t-42.5 66.5t-18 75.5t4 75.5
q23 122 117.5 203.5t214.5 81.5q77 0 126 -36t67 -100l23 121h69l-23 -120q91 135 236 135q121 0 184 -84q67 -90 37 -219zM162 270v-1q-17 -93 33 -154t143 -61q86 0 160 64t90 151q17 88 -33 151q-50 65 -139 65q-94 0 -166 -64t-88 -151zM667 304h409q1 91 -45 138
t-125 47q-92 0 -163 -66q-48 -45 -76 -119z" />
    <glyph glyph-name="ccedilla" unicode="&#xe7;" horiz-adv-x="630" 
d="M325 -14l-27 -42q8 3 17 3q32 0 50.5 -22t12.5 -55q-7 -34 -34 -60t-68 -26q-9 0 -18.5 2t-23.5 8.5t-22.5 22.5t-8.5 40h43q4 -33 37 -33q17 0 32 12t19 34q4 18 -6 29.5t-28 11.5q-22 0 -41 -22l-33 15l55 85q-104 14 -159 91.5t-34 189.5q23 120 119 201.5t217 81.5
q94 0 161 -53.5t76 -147.5h-76q-12 64 -60.5 98t-109.5 33q-86 0 -164 -60q-32 -26 -56.5 -67.5t-32.5 -86.5q-18 -94 32.5 -154.5t139.5 -60.5q73 1 132 38t87 90h77q-43 -86 -125 -139.5t-180 -56.5z" />
    <glyph glyph-name="egrave" unicode="&#xe8;" horiz-adv-x="628" 
d="M641 248h-490q-10 -64 15.5 -111t67.5 -68t90 -20q62 0 116 29t90 82h77q-53 -86 -134 -131q-76 -44 -161 -44q-89 0 -147.5 43.5t-77.5 106.5t-6 133q22 119 118.5 202t216.5 83q118 0 183 -76q80 -94 42 -229zM163 307h416q9 73 -41.5 129t-131.5 54q-85 0 -154.5 -54
t-88.5 -129zM341 780l214 -135l-33 -47l-217 128z" />
    <glyph glyph-name="eacute" unicode="&#xe9;" horiz-adv-x="628" 
d="M641 248h-490q-10 -64 15.5 -111t67.5 -68t90 -20q62 0 116 29t90 82h77q-53 -86 -134 -131q-76 -44 -161 -44q-89 0 -147.5 43.5t-77.5 106.5t-6 133q22 119 118.5 202t216.5 83q118 0 183 -76q80 -94 42 -229zM163 307h416q9 73 -41.5 129t-131.5 54q-85 0 -154.5 -54
t-88.5 -129zM310 648l263 135l17 -54l-264 -129z" />
    <glyph glyph-name="ecircumflex" unicode="&#xea;" horiz-adv-x="628" 
d="M641 248h-490q-10 -64 15.5 -111t67.5 -68t90 -20q62 0 116 29t90 82h77q-53 -86 -134 -131q-76 -44 -161 -44q-89 0 -147.5 43.5t-77.5 106.5t-6 133q22 119 118.5 202t216.5 83q118 0 183 -76q80 -94 42 -229zM163 307h416q9 73 -41.5 129t-131.5 54q-85 0 -154.5 -54
t-88.5 -129zM481 752l151 -133h-84l-104 82l-134 -82h-84l200 133h55z" />
    <glyph glyph-name="edieresis" unicode="&#xeb;" horiz-adv-x="628" 
d="M641 248h-490q-10 -64 15.5 -111t67.5 -68t90 -20q62 0 116 29t90 82h77q-53 -86 -134 -131q-76 -44 -161 -44q-89 0 -147.5 43.5t-77.5 106.5t-6 133q22 119 118.5 202t216.5 83q118 0 183 -76q80 -94 42 -229zM163 307h416q9 73 -41.5 129t-131.5 54q-85 0 -154.5 -54
t-88.5 -129zM392 748l-24 -128h-73l24 128h73zM580 748l-24 -128h-72l24 128h72z" />
    <glyph glyph-name="igrave" unicode="&#xec;" horiz-adv-x="218" 
d="M72 0l100 538h74l-100 -538h-74zM115 780l214 -135l-33 -47l-217 128z" />
    <glyph glyph-name="iacute" unicode="&#xed;" horiz-adv-x="218" 
d="M72 0l100 538h74l-100 -538h-74zM128 648l263 135l17 -54l-265 -129z" />
    <glyph glyph-name="icircumflex" unicode="&#xee;" horiz-adv-x="218" 
d="M72 0l100 538h74l-100 -538h-74zM276 752l151 -133h-83l-105 82l-134 -82h-83l200 133h54z" />
    <glyph glyph-name="idieresis" unicode="&#xef;" horiz-adv-x="218" 
d="M72 0l100 538h74l-100 -538h-74zM190 748l-24 -128h-72l24 128h72zM378 748l-24 -128h-72l24 128h72z" />
    <glyph glyph-name="eth" unicode="&#xf0;" horiz-adv-x="649" 
d="M437 625l-242 -72l11 55l177 54q-49 26 -134 58l84 25q72 -26 133 -63l215 63l-10 -55l-153 -46q99 -66 135 -166q31 -87 10 -196q-25 -133 -123.5 -213.5t-218.5 -82.5q-118 0 -187 76t-45 206q25 127 117 203.5t207 78.5q48 0 90.5 -19.5t66.5 -53.5q-8 29 -31 57
q-41 55 -102 91zM162 270v-1q-17 -91 31 -153t142 -62t165 63.5t87 152.5q16 87 -33.5 151t-136.5 64q-95 -1 -166.5 -63t-88.5 -152z" />
    <glyph glyph-name="ntilde" unicode="&#xf1;" horiz-adv-x="638" 
d="M72 0l100 538h70q-1 -4 -7.5 -39.5t-11.5 -56.5q33 53 91 82.5t129 28.5q80 -1 126.5 -36t55.5 -89.5t-1 -121.5l-57 -306h-73l54 291q16 91 -17 142.5t-120 50.5q-83 -1 -138 -48.5t-71 -131.5l-56 -304h-74zM610 719l22 -50q-50 -39 -108 -39q-36 0 -88 18
q-46 16 -76 16q-43 0 -80 -30l-23 51q46 38 107 38q43 0 88 -17q43 -16 77 -16q47 0 81 29z" />
    <glyph glyph-name="ograve" unicode="&#xf2;" horiz-adv-x="649" 
d="M89 269v1q22 117 116.5 200t220.5 83q127 0 191.5 -83.5t42.5 -200.5t-117 -200t-222 -83q-126 0 -190 83t-42 200zM162 269v-1q-17 -91 32.5 -152.5t139.5 -61.5t162.5 61.5t89.5 153.5t-32.5 153.5t-139.5 61.5t-162.5 -61.5t-89.5 -153.5zM352 780l213 -135l-33 -47
l-217 128z" />
    <glyph glyph-name="oacute" unicode="&#xf3;" horiz-adv-x="649" 
d="M89 269v1q22 117 116.5 200t220.5 83q127 0 191.5 -83.5t42.5 -200.5t-117 -200t-222 -83q-126 0 -190 83t-42 200zM162 269v-1q-17 -91 32.5 -152.5t139.5 -61.5t162.5 61.5t89.5 153.5t-32.5 153.5t-139.5 61.5t-162.5 -61.5t-89.5 -153.5zM321 648l263 135l17 -54
l-265 -129z" />
    <glyph glyph-name="ocircumflex" unicode="&#xf4;" horiz-adv-x="649" 
d="M89 269v1q22 117 116.5 200t220.5 83q127 0 191.5 -83.5t42.5 -200.5t-117 -200t-222 -83q-126 0 -190 83t-42 200zM162 269v-1q-17 -91 32.5 -152.5t139.5 -61.5t162.5 61.5t89.5 153.5t-32.5 153.5t-139.5 61.5t-162.5 -61.5t-89.5 -153.5zM492 752l150 -133h-83
l-104 82l-134 -82h-84l200 133h55z" />
    <glyph glyph-name="otilde" unicode="&#xf5;" horiz-adv-x="649" 
d="M89 269v1q22 117 116.5 200t220.5 83q127 0 191.5 -83.5t42.5 -200.5t-117 -200t-222 -83q-126 0 -190 83t-42 200zM162 269v-1q-17 -91 32.5 -152.5t139.5 -61.5t162.5 61.5t89.5 153.5t-32.5 153.5t-139.5 61.5t-162.5 -61.5t-89.5 -153.5zM615 719l23 -50
q-50 -39 -108 -39q-36 0 -88 18q-46 16 -76 16q-44 0 -81 -30l-22 51q46 38 107 38q41 0 88 -17q43 -16 76 -16q47 0 81 29z" />
    <glyph glyph-name="odieresis" unicode="&#xf6;" horiz-adv-x="649" 
d="M89 269v1q22 117 116.5 200t220.5 83q127 0 191.5 -83.5t42.5 -200.5t-117 -200t-222 -83q-126 0 -190 83t-42 200zM162 269v-1q-17 -91 32.5 -152.5t139.5 -61.5t162.5 61.5t89.5 153.5t-32.5 153.5t-139.5 61.5t-162.5 -61.5t-89.5 -153.5zM406 748l-24 -128h-72
l24 128h72zM594 748l-24 -128h-72l24 128h72z" />
    <glyph glyph-name="divide" unicode="&#xf7;" horiz-adv-x="600" 
d="M433 521l-20 -107h-72l20 107h72zM89 215l13 72h502l-13 -72h-502zM352 88l-20 -107h-72l20 107h72z" />
    <glyph glyph-name="oslash" unicode="&#xf8;" horiz-adv-x="649" 
d="M613 573h77l-83 -93q76 -84 53 -211q-22 -117 -117 -200.5t-221 -83.5q-81 0 -136 37l-51 -56h-78l85 92q-77 79 -53 211q22 117 116.5 200.5t221.5 83.5q85 0 136 -37zM200 117l310 339q-39 28 -95 28q-91 0 -163.5 -61.5t-89.5 -153.5q-18 -96 38 -152zM549 420
l-310 -339q40 -27 95 -27q92 0 163.5 62t88.5 153q18 96 -37 151z" />
    <glyph glyph-name="ugrave" unicode="&#xf9;" horiz-adv-x="639" 
d="M667 538l-100 -538h-70l18 96q-32 -53 -90 -82.5t-130 -28.5q-117 2 -159 71t-22 177l57 305h73l-54 -291q-17 -91 16 -142.5t121 -50.5q84 1 139 48.5t70 131.5l57 304h74zM315 780l213 -135l-33 -47l-217 128z" />
    <glyph glyph-name="uacute" unicode="&#xfa;" horiz-adv-x="639" 
d="M667 538l-100 -538h-70l18 96q-32 -53 -90 -82.5t-130 -28.5q-117 2 -159 71t-22 177l57 305h73l-54 -291q-17 -91 16 -142.5t121 -50.5q84 1 139 48.5t70 131.5l57 304h74zM331 648l263 135l17 -54l-265 -129z" />
    <glyph glyph-name="ucircumflex" unicode="&#xfb;" horiz-adv-x="639" 
d="M667 538l-100 -538h-70l18 96q-32 -53 -90 -82.5t-130 -28.5q-117 2 -159 71t-22 177l57 305h73l-54 -291q-17 -91 16 -142.5t121 -50.5q84 1 139 48.5t70 131.5l57 304h74zM486 752l151 -133h-83l-105 82l-134 -82h-83l200 133h54z" />
    <glyph glyph-name="udieresis" unicode="&#xfc;" horiz-adv-x="639" 
d="M667 538l-100 -538h-70l18 96q-32 -53 -90 -82.5t-130 -28.5q-117 2 -159 71t-22 177l57 305h73l-54 -291q-17 -91 16 -142.5t121 -50.5q84 1 139 48.5t70 131.5l57 304h74zM400 748l-24 -128h-72l24 128h72zM588 748l-24 -128h-72l24 128h72z" />
    <glyph glyph-name="yacute" unicode="&#xfd;" horiz-adv-x="512" 
d="M86 -204l132 214l-110 528h79l88 -435l255 435h81l-445 -742h-80zM287 648l263 135l17 -54l-264 -129z" />
    <glyph glyph-name="thorn" unicode="&#xfe;" horiz-adv-x="686" 
d="M34 -204l175 944h73l-44 -240l-14 -74q48 67 116 97t131 30q124 0 185.5 -84.5t39.5 -201.5q-22 -120 -116 -201t-213 -81q-78 0 -129.5 35.5t-72.5 89.5l-12 -68l-46 -246h-73zM623 269v1q17 90 -31.5 152t-142.5 62q-91 0 -164 -62q-75 -60 -93 -155q-14 -84 33 -147
q51 -66 144 -66t165 62t89 153z" />
    <glyph glyph-name="ydieresis" unicode="&#xff;" horiz-adv-x="512" 
d="M86 -204l132 214l-110 528h79l88 -435l255 435h81l-445 -742h-80zM337 748l-24 -128h-72l24 128h72zM525 748l-24 -128h-72l24 128h72z" />
    <glyph glyph-name="dotlessi" unicode="&#x131;" horiz-adv-x="218" 
d="M72 0l100 538h74l-100 -538h-74z" />
    <glyph glyph-name="Lslash" unicode="&#x141;" horiz-adv-x="444" 
d="M46 240l16 85l87 56l66 359h83l-55 -299l160 102l-16 -85l-161 -105l-51 -280h282l-14 -73h-365l55 295z" />
    <glyph glyph-name="lslash" unicode="&#x142;" horiz-adv-x="260" 
d="M153 330l-82 -51l14 77l82 51l62 333h74l-53 -286l97 61l-14 -76l-97 -63l-70 -376h-74z" />
    <glyph glyph-name="OE" unicode="&#x152;" horiz-adv-x="1147" 
d="M927 667l-48 -257h284l-14 -73h-284l-48 -264h287l-14 -73h-367l16 85l15 84q-55 -84 -146.5 -133t-188.5 -49q-163 0 -252.5 109t-59.5 273q30 163 159 273.5t294 110.5q109 0 181 -51.5t88 -130.5l16 85l15 84h367l-13 -73h-287zM190 369v-1q-24 -128 44 -218t198 -90
t232.5 91.5t126.5 220.5q22 131 -45.5 219.5t-198.5 88.5q-130 0 -231 -89t-126 -222z" />
    <glyph glyph-name="oe" unicode="&#x153;" horiz-adv-x="1129" 
d="M1138 251h-484q-13 -95 37 -148.5t131 -53.5q61 0 116 29.5t87 82.5h77q-49 -80 -118 -124q-84 -52 -173 -52q-92 0 -146.5 46t-67.5 115q-48 -78 -121.5 -119.5t-155.5 -41.5q-59 0 -105 19t-71 49t-41.5 67.5t-17 75.5t3.5 72q22 120 117.5 202.5t220.5 82.5
q84 0 141.5 -44.5t73.5 -116.5q34 58 104.5 108.5t167.5 50.5q119 0 184 -85q71 -91 40 -215zM162 269v-1q-17 -90 32.5 -152t140.5 -62t162.5 65.5t87.5 148.5q15 83 -32 150t-138 67q-89 0 -162.5 -61t-90.5 -155zM666 305h406q5 66 -38.5 123.5t-131.5 57.5
q-78 0 -144.5 -50.5t-91.5 -130.5z" />
    <glyph glyph-name="Scaron" unicode="&#x160;" horiz-adv-x="536" 
d="M76 206h83q-7 -81 33 -115t88 -34q59 0 110.5 40.5t63.5 100.5q6 35 -2 61t-30 42t-45.5 26.5t-56.5 21.5q-9 3 -13 4q-26 8 -41 14t-43 22.5t-43 35.5t-23.5 51.5t-1.5 72.5q16 94 92 149t166 55q36 0 68 -10.5t58.5 -32t39.5 -60t8 -88.5h-82q0 121 -108 121
q-57 0 -103 -35.5t-56 -91.5q-6 -32 0.5 -54.5t30 -39t48 -27t68.5 -26.5l9 -3q17 -7 21 -8.5t21 -9.5t23 -12l20.5 -13.5t20 -17t16 -19t14 -24l8 -27.5t4 -33t-4.5 -38q-18 -93 -92.5 -155t-176.5 -62q-97 0 -152 58.5t-40 160.5zM237 925h83l105 -83l133 83h84l-199 -132
h-56z" />
    <glyph glyph-name="scaron" unicode="&#x161;" horiz-adv-x="450" 
d="M462 403h-73q7 42 -14 65.5t-62 23.5q-43 0 -73.5 -25.5t-35.5 -61.5t17 -55.5t72 -35.5l45.5 -13.5t38.5 -17.5t34.5 -28t17.5 -40.5t2 -58.5q-10 -73 -71.5 -122t-138.5 -49q-72 0 -119.5 44.5t-33.5 123.5h73q-7 -52 21 -79.5t72 -27.5q46 0 80.5 29.5t41.5 71.5
q7 44 -19 68t-95 45q-63 20 -93 50t-20 89q13 70 69 112t127 42q64 0 105.5 -37t31.5 -113zM161 746h83l105 -82l133 82h84l-199 -132h-56z" />
    <glyph glyph-name="Ydieresis" unicode="&#x178;" horiz-adv-x="585" 
d="M251 0l48 260l-149 480h90l116 -400l263 400h90l-327 -480l-48 -260h-83zM406 923l-24 -128h-73l24 128h73zM594 923l-24 -128h-72l24 128h72z" />
    <glyph glyph-name="Zcaron" unicode="&#x17d;" horiz-adv-x="499" 
d="M601 677l-468 -604h371l-14 -73h-471l10 53l477 614h-373l13 73h467zM213 921h83l104 -82l134 82h84l-200 -132h-56z" />
    <glyph glyph-name="zcaron" unicode="&#x17e;" horiz-adv-x="419" 
d="M13 0l10 54l377 425h-286l11 59h369l-11 -60l-370 -419h303l-11 -59h-392zM148 745h83l105 -83l134 83h83l-199 -132h-56z" />
    <glyph glyph-name="florin" unicode="&#x192;" 
d="M463 510h119l-11 -59h-128l-162 -437q-39 -105 -80 -150q-67 -73 -176 -73q-36 0 -56 7l25 68q30 -7 41 -7q39 0 67.5 11.5t47 36t28 44t21.5 51.5l166 449h-120l11 59h130q23 68 48 115t66 80q62 48 138 48q22 0 31 -3l-22 -61q-11 1 -25 0q-50 -4 -83 -34
q-8 -7 -15.5 -16t-14 -20.5l-11 -20t-11 -23.5t-9 -21.5t-8.5 -23.5z" />
    <glyph glyph-name="circumflex" unicode="&#x2c6;" horiz-adv-x="555" 
d="M444 752l151 -133h-83l-105 82l-134 -82h-83l200 133h54z" />
    <glyph glyph-name="caron" unicode="&#x2c7;" horiz-adv-x="555" 
d="M213 746h83l105 -82l134 82h83l-199 -132h-56z" />
    <glyph glyph-name="uni02C9" unicode="&#x2c9;" horiz-adv-x="555" 
d="M588 711l-12 -62h-357l12 62h357z" />
    <glyph glyph-name="breve" unicode="&#x2d8;" horiz-adv-x="555" 
d="M216 730h66q29 -47 124 -47q97 0 136 47h67q-20 -45 -76.5 -75.5t-139.5 -30.5q-68 0 -117.5 26t-59.5 80z" />
    <glyph glyph-name="dotaccent" unicode="&#x2d9;" horiz-adv-x="555" 
d="M453 748l-24 -128h-73l24 128h73z" />
    <glyph glyph-name="ring" unicode="&#x2da;" horiz-adv-x="555" 
d="M424 792h1q42 0 66.5 -30t16.5 -73q-8 -42 -43.5 -72t-78.5 -30t-67.5 30t-16.5 72q7 42 43.5 72.5t78.5 30.5zM416 748h-1q-23 0 -42.5 -17.5t-24.5 -40.5q-4 -23 10 -39.5t37 -16.5q24 0 43 16.5t24 39.5q5 24 -8.5 41t-37.5 17z" />
    <glyph glyph-name="ogonek" unicode="&#x2db;" horiz-adv-x="555" 
d="M276 0h47l-47 -30.5t-28.5 -26.5t-17.5 -36q-5 -27 10.5 -45.5t42.5 -18.5q18 0 55 13l-9 -48q-34 -14 -68 -14q-51 0 -75 27t-16 70q5 26 23.5 48.5t36 33.5t46.5 27z" />
    <glyph glyph-name="tilde" unicode="&#x2dc;" horiz-adv-x="555" 
d="M568 719l23 -50q-51 -39 -108 -39q-36 0 -88 18q-46 16 -76 16q-44 0 -81 -30l-23 51q46 38 107 38q43 0 88 -17q44 -16 77 -16q47 0 81 29z" />
    <glyph glyph-name="hungarumlaut" unicode="&#x2dd;" horiz-adv-x="555" 
d="M221 640l203 144l34 -45l-207 -139zM395 640l203 144l34 -45l-207 -139z" />
    <glyph glyph-name="uni03A9" unicode="&#x3a9;" horiz-adv-x="746" 
d="M219 63v3q-51 56 -75 141.5t-4 189.5q28 155 135 254t240 99q90 0 151 -49t83 -128t4 -172q-20 -108 -77.5 -196t-127.5 -139v-3h157l-12 -63h-247l9 46q75 45 136.5 134t83.5 207q13 73 0.5 139.5t-57 113t-116.5 46.5q-104 0 -184.5 -86.5t-104.5 -214.5
q-21 -112 8.5 -204.5t86.5 -134.5l-9 -46h-247l12 63h155z" />
    <glyph glyph-name="uni03BC" unicode="&#x3bc;" horiz-adv-x="585" 
d="M35 -184l134 722h74l-54 -291q-19 -99 7 -141q31 -52 105 -52q73 0 125 58q51 56 72 167l48 259h73l-100 -538h-71l19 102q-67 -114 -178 -114q-99 0 -134 78l-14 -77l-32 -173h-74z" />
    <glyph glyph-name="pi" unicode="&#x3c0;" horiz-adv-x="590" 
d="M652 484h-84l-61 -329q-20 -102 -14 -155h-73q-11 32 10 148l63 336h-190q-27 -116 -76.5 -264.5t-90.5 -219.5h-73q43 82 91.5 226t73.5 258q-74 0 -119 -13l-2 50q51 28 153 28h412z" />
    <glyph glyph-name="endash" unicode="&#x2013;" horiz-adv-x="500" 
d="M94 317h430l-14 -73h-430z" />
    <glyph glyph-name="emdash" unicode="&#x2014;" horiz-adv-x="1000" 
d="M94 317h930l-14 -73h-930z" />
    <glyph glyph-name="quoteleft" unicode="&#x2018;" horiz-adv-x="289" 
d="M295 740l36 -186h-61l-44 186h69z" />
    <glyph glyph-name="quoteright" unicode="&#x2019;" horiz-adv-x="289" 
d="M164 554l104 186h70l-112 -186h-62z" />
    <glyph glyph-name="quotesinglbase" unicode="&#x201a;" horiz-adv-x="289" 
d="M46 -82l104 186h70l-112 -186h-62z" />
    <glyph glyph-name="quotedblleft" unicode="&#x201c;" horiz-adv-x="431" 
d="M308 740l37 -186h-62l-44 186h69zM429 740l37 -186h-62l-44 186h69z" />
    <glyph glyph-name="quotedblright" unicode="&#x201d;" horiz-adv-x="431" 
d="M171 554l105 186h69l-112 -186h-62zM292 554l105 186h69l-112 -186h-62z" />
    <glyph glyph-name="quotedblbase" unicode="&#x201e;" horiz-adv-x="431" 
d="M53 -82l105 186h69l-112 -186h-62zM174 -82l105 186h69l-112 -186h-62z" />
    <glyph glyph-name="dagger" unicode="&#x2020;" horiz-adv-x="605" 
d="M477 740l-37 -202h178l-13 -66h-178l-114 -620h-75l114 620h-177l13 66h177l37 202h75z" />
    <glyph glyph-name="daggerdbl" unicode="&#x2021;" horiz-adv-x="605" 
d="M478 740l-32 -172h177l-12 -67h-177l-71 -382h177l-12 -66h-177l-37 -201h-75l37 201h-178l12 66h178l71 382h-178l12 67h178l32 172h75z" />
    <glyph glyph-name="bullet" unicode="&#x2022;" horiz-adv-x="496" 
d="M339 483h1q44 0 69 -32t17 -77t-45.5 -76.5t-83.5 -31.5t-71.5 32t-17.5 76q8 45 46 77t85 32z" />
    <glyph glyph-name="ellipsis" unicode="&#x2026;" horiz-adv-x="1000" 
d="M128 0l21 111h78l-21 -111h-78zM461 0l21 111h78l-21 -111h-78zM794 0l21 111h78l-21 -111h-78z" />
    <glyph glyph-name="perthousand" unicode="&#x2030;" horiz-adv-x="1145" 
d="M133 585l1 1q13 71 70.5 119.5t129.5 48.5t111.5 -48.5t25.5 -120.5q-13 -72 -70.5 -120.5t-129.5 -48.5q-71 0 -111 48.5t-27 120.5zM189 585v-1q-9 -49 17 -81.5t75 -32.5t87 32.5t47 82.5q10 50 -16 82.5t-75 32.5t-87 -32.5t-48 -82.5zM428 155v1q14 71 71 119.5
t129 48.5t111.5 -48.5t26.5 -120.5t-71.5 -120.5t-129.5 -48.5t-110.5 48.5t-26.5 120.5zM484 155v-1q-10 -49 16 -81.5t75 -32.5t87.5 32.5t48.5 82.5q9 50 -17.5 83t-75.5 33t-87 -33t-47 -83zM812 155v1q14 71 71 119.5t129 48.5q71 0 110.5 -48.5t26.5 -120.5
t-71 -120.5t-129 -48.5q-72 0 -111.5 48.5t-25.5 120.5zM867 155v-1q-10 -49 16 -81.5t76 -32.5q49 0 87 32.5t48 82.5q9 50 -17 83t-75 33q-50 0 -88 -33t-47 -83zM750 740l-544 -740h-60l544 740h60z" />
    <glyph glyph-name="guilsinglleft" unicode="&#x2039;" horiz-adv-x="239" 
d="M88 278l144 190h62l-144 -190l74 -188h-62z" />
    <glyph glyph-name="guilsinglright" unicode="&#x203a;" horiz-adv-x="239" 
d="M182 468l73 -190l-143 -188h-62l143 188l-73 190h62z" />
    <glyph glyph-name="fraction" unicode="&#x2044;" horiz-adv-x="127" 
d="M-131 0l460 740h65l-460 -740h-65z" />
    <glyph glyph-name="Euro" unicode="&#x20ac;" horiz-adv-x="554" 
d="M680 659l-42 -72q-17 42 -57 70.5t-103 28.5q-61 0 -109.5 -35.5t-74 -82.5t-35.5 -100h311l-37 -63h-287l-13 -70h259l-37 -63h-232q-14 -92 10 -142q37 -76 128 -76q46 0 97 20t75 52l-16 -87q-20 -18 -63.5 -35t-104.5 -17q-69 0 -122 31.5t-74 99.5q-18 56 -4 154
h-91l37 63h64l13 70h-89l37 63h65q21 117 101.5 201t204.5 84q69 0 119.5 -29t69.5 -65z" />
    <glyph glyph-name="afii61289" unicode="&#x2113;" horiz-adv-x="502" 
d="M470 154l31 -31q-92 -131 -217 -131q-84 0 -115.5 55.5t-19.5 141.5l3 14l-69 -49l-15 44q87 66 95 73l54 290q25 133 82.5 193t123.5 60q63 0 86.5 -48t9.5 -122q-31 -175 -287 -389l-6 -35q-15 -85 10 -126.5t74 -41.5q84 0 160 102zM290 567l-44 -236q195 179 220 311
q22 114 -54 114q-35 0 -69.5 -46t-52.5 -143z" />
    <glyph glyph-name="trademark" unicode="&#x2122;" horiz-adv-x="990" 
d="M416 296l82 444h77l102 -361l235 361h77l-82 -444h-57l69 371l-238 -371h-39l-102 369l-68 -369h-56zM181 296l73 393h-113l9 51h286l-9 -51h-113l-73 -393h-60z" />
    <glyph glyph-name="Omega" unicode="&#x2126;" horiz-adv-x="746" 
d="M219 63v3q-51 56 -75 141.5t-4 189.5q28 155 135 254t240 99q90 0 151 -49t83 -128t4 -172q-20 -108 -77.5 -196t-127.5 -139v-3h157l-12 -63h-247l9 46q75 45 136.5 134t83.5 207q13 73 0.5 139.5t-57 113t-116.5 46.5q-104 0 -184.5 -86.5t-104.5 -214.5
q-21 -112 8.5 -204.5t86.5 -134.5l-9 -46h-247l12 63h155z" />
    <glyph glyph-name="estimated" unicode="&#x212e;" horiz-adv-x="1062" 
d="M1026 359h-689q-6 0 -6 -4v-209q0 -14 9 -24q110 -113 261 -113q163 0 274 127h61q-58 -68 -146.5 -108t-189.5 -40q-176 0 -300.5 112t-124.5 270t124.5 270t300.5 112t301 -112t125 -270v-11zM869 386v210q0 15 -10 25q-111 109 -258 109q-150 0 -260 -112
q-10 -10 -10 -26v-206q0 -6 6 -6h528q4 0 4 6z" />
    <glyph glyph-name="partialdiff" unicode="&#x2202;" horiz-adv-x="565" 
d="M238 714l-15 55q82 59 181 59q109 0 166.5 -103t22.5 -296q-37 -194 -129.5 -315.5t-221.5 -121.5q-95 0 -133.5 72t-19.5 171q22 120 101 195t169 75q63 0 102.5 -33.5t50.5 -67.5h1q5 20 9 46q26 139 -14.5 226.5t-121.5 87.5q-77 0 -148 -50zM259 55h2
q71 0 133.5 79.5t95.5 192.5q-7 43 -41.5 79.5t-89.5 36.5q-64 0 -121.5 -61t-73.5 -147q-15 -79 10.5 -129.5t84.5 -50.5z" />
    <glyph glyph-name="Delta" unicode="&#x2206;" horiz-adv-x="671" 
d="M33 0l10 52l391 706h87l127 -705l-10 -53h-605zM120 62h448l-76 410q-3 25 -16.5 97.5t-15.5 98.5h-4q-10 -22 -47 -89t-49 -91z" />
    <glyph glyph-name="product" unicode="&#x220f;" horiz-adv-x="860" 
d="M833 668h-114v-770h-75v770h-292v-770h-75v770h-114v70h670v-70z" />
    <glyph glyph-name="summation" unicode="&#x2211;" horiz-adv-x="710" 
d="M687 -102h-527v52l280 367l-267 367v54h497v-66h-392v-4l250 -340l-270 -354v-3h429v-73z" />
    <glyph glyph-name="minus" unicode="&#x2212;" horiz-adv-x="600" 
d="M89 215l13 72h502l-13 -72h-502z" />
    <glyph glyph-name="uni2215" unicode="&#x2215;" horiz-adv-x="127" 
d="M-131 0l460 740h65l-460 -740h-65z" />
    <glyph glyph-name="uni2219" unicode="&#x2219;" horiz-adv-x="289" 
d="M241 310l-20 -111h-78l20 111h78z" />
    <glyph glyph-name="radical" unicode="&#x221a;" horiz-adv-x="732" 
d="M732 877l-230 -1035h-68l-166 491l-78 -29l-15 47l140 55l134 -394q1 -5 8.5 -35t9.5 -42h1q2 15 14 76l193 866h57z" />
    <glyph glyph-name="infinity" unicode="&#x221e;" horiz-adv-x="895" 
d="M843 307v-1q0 -73 -47 -119t-112 -46q-47 0 -90 29t-101 95q-36 -40 -59 -62t-61 -42t-78 -20q-64 0 -110 46.5t-46 114.5q0 71 46.5 118t116.5 47q54 0 99.5 -33t94.5 -92q29 33 42.5 47t41 36.5t54.5 32t58 9.5q67 0 109 -44.5t42 -115.5zM302 189h1q14 0 27.5 3.5
t27 11.5l23.5 14t24 20t20.5 20t21.5 22.5t18 20.5q-55 67 -82 88q-42 32 -88 32q-48 0 -76.5 -35t-27.5 -85q0 -48 31 -80t80 -32zM686 421h-1q-24 0 -51 -14.5t-41.5 -27.5t-41 -41.5t-29.5 -31.5q58 -65 92 -91t74 -26q47 0 75.5 35t28.5 79q0 54 -29.5 86t-76.5 32z" />
    <glyph glyph-name="integral" unicode="&#x222b;" horiz-adv-x="510" 
d="M493 887l-13 -54q-16 11 -38 11q-34 0 -52 -25q-36 -43 -36 -189q0 -82 7 -264t7 -269q0 -144 -45 -213q-33 -54 -102 -54q-41 0 -68 18l14 56q23 -13 47 -13q30 0 48 24q36 46 36 183q0 87 -7 271.5t-7 267.5q0 88 12.5 140t42.5 83q38 41 98 41q34 0 56 -14z" />
    <glyph glyph-name="approxequal" unicode="&#x2248;" horiz-adv-x="668" 
d="M589 453l31 -28q-49 -99 -133 -99q-29 0 -53.5 9.5t-68.5 34.5q-63 36 -98 36q-33 0 -56 -20.5t-47 -57.5l-33 26q52 100 143 100q18 0 37.5 -5.5t28.5 -9.5t29.5 -15.5t21.5 -12.5q4 -2 15 -8l14.5 -8t12.5 -6.5t14 -6t13 -3.5t15 -3t15 -1q55 0 99 78zM589 275l31 -27
q-50 -99 -133 -99q-29 0 -53.5 9.5t-68.5 34.5q-63 36 -97 36t-57 -20.5t-47 -58.5l-33 27q52 100 143 100q18 0 37 -5t29 -9.5t29 -15t22 -12.5q4 -2 16 -9t17 -9.5t15 -7t16.5 -6.5t16 -3.5t18.5 -1.5q31 0 53 18.5t46 58.5z" />
    <glyph glyph-name="notequal" unicode="&#x2260;" horiz-adv-x="686" 
d="M516 529l-47 -102h164v-51h-184l-70 -153h254v-49h-274l-57 -123l-40 18l49 105h-157v49h178l69 153h-247v51h267l55 120z" />
    <glyph glyph-name="lessequal" unicode="&#x2264;" horiz-adv-x="700" 
d="M645 103l-470 236v52l470 236v-60l-416 -200v-2l416 -202v-60zM648 8h-479v52h479v-52z" />
    <glyph glyph-name="greaterequal" unicode="&#x2265;" horiz-adv-x="700" 
d="M176 627l470 -236v-52l-470 -236v60l415 201v2l-415 201v60zM647 8h-477v52h477v-52z" />
    <glyph glyph-name="lozenge" unicode="&#x25ca;" horiz-adv-x="733" 
d="M676 369l-210 -416h-62l-208 416l210 416h62zM606 367l-149 297q-12 26 -20 55h-3q-7 -27 -20 -55l-148 -294l150 -299q15 -35 18 -54h4q6 29 19 53z" />
    </font>
</defs>
</svg>
